<?xml version="1.0" encoding="utf-8"?>
<!-- Generator: Adobe Illustrator 26.3.1, SVG Export Plug-In . SVG Version: 6.00 Build 0)  -->
<svg version="1.1" id="Capa_1" xmlns="http://www.w3.org/2000/svg" xmlns:xlink="http://www.w3.org/1999/xlink" x="0px" y="0px"
	 viewBox="0 0 60.6 59.96" style="enable-background:new 0 0 60.6 59.96;" xml:space="preserve">
<style type="text/css">
	.st0{fill:#D10514;}
	.st1{fill:#010101;}
	.st2{fill:#020202;}
	.st3{fill:#FEFEFE;}
	.st4{fill:#E01100;}
</style>
<g>
	<path class="st0" d="M30.21,0.13c9.79,0,19.58,0,29.37-0.01c0.47,0,0.58,0.13,0.58,0.59c-0.01,15.58-0.01,31.17,0,46.75
		c0,0.48-0.14,0.58-0.59,0.58c-19.56-0.01-39.12-0.01-58.68,0c-0.5,0-0.61-0.14-0.61-0.62c0.01-15.57,0.01-31.13,0-46.7
		c0-0.51,0.15-0.6,0.62-0.6C10.66,0.13,20.44,0.13,30.21,0.13z"/>
	<path d="M14.99,55.53c0,1.31-0.01,2.63,0.01,3.94c0.01,0.39-0.09,0.53-0.5,0.52c-0.99-0.02-1,0-1-1c0-1.64,0.01-3.29-0.01-4.93
		c0-0.37,0.07-0.48,0.49-0.53c1.05-0.11,1.74,0.17,2.21,1.22c0.51,1.15,1.26,2.19,1.9,3.28c0.19-0.07,0.1-0.21,0.1-0.31
		c0-1.24,0.01-2.48-0.01-3.71c-0.01-0.35,0.1-0.46,0.46-0.46c1.04,0,1.04-0.01,1.04,1.03c0,1.66-0.01,3.32,0.01,4.99
		c0,0.35-0.11,0.41-0.44,0.46c-0.97,0.15-1.89-0.4-2.29-1.29c-0.51-1.12-1.23-2.15-1.86-3.22C15.04,55.52,15.05,55.52,14.99,55.53z"
		/>
	<path d="M4.22,56.71c0.05,0.03,0.08,0.06,0.12,0.08c1,0.33,1.25,0.72,1.14,1.78c-0.08,0.82-0.6,1.36-1.53,1.4
		C2.81,60.02,1.65,59.99,0.49,60c-0.17,0-0.31-0.14-0.31-0.31c0.01-1.95,0.01-3.89,0-5.84c0-0.26,0.1-0.31,0.33-0.31
		c1.07,0.01,2.13-0.03,3.2,0.01c1.23,0.05,1.77,0.71,1.67,1.92c-0.05,0.54-0.32,0.87-0.8,1.06C4.46,56.58,4.3,56.55,4.22,56.71z"/>
	<path d="M21.03,56.74c0-0.95,0.01-1.9,0-2.85c0-0.21-0.01-0.37,0.27-0.36c1.13,0.04,2.27-0.08,3.4,0.07
		c0.93,0.12,1.72,0.81,1.91,1.72c0.19,0.91,0.2,1.83,0.02,2.73c-0.24,1.24-0.96,1.85-2.27,1.91c-1,0.04-2,0.01-3,0.03
		C21.01,60.01,21,59.83,21,59.59c0-0.95,0-1.9,0-2.84C21.01,56.74,21.02,56.74,21.03,56.74z"/>
	<path d="M52.93,58.05c0,0.46-0.01,0.91,0,1.37c0.01,0.24-0.06,0.37-0.31,0.43c-1.02,0.25-2.04,0.36-3.09,0.13
		c-1.04-0.23-1.83-1.11-2.03-2.16c-0.14-0.74-0.13-1.49,0.02-2.23c0.26-1.32,1.07-1.98,2.59-2.14c0.78-0.08,1.56,0,2.32,0.2
		c0.32,0.09,0.59,1.04,0.36,1.28c-0.11,0.11-0.22,0.02-0.33-0.01c-0.61-0.16-1.22-0.25-1.84-0.23c-0.78,0.03-1.42,0.61-1.53,1.38
		c-0.07,0.49-0.07,0.98,0.02,1.47c0.13,0.73,0.76,1.3,1.5,1.33c0.98,0.03,1.27-0.34,1-1.3c-0.04-0.14-0.11-0.2-0.25-0.19
		c-0.1,0-0.2,0-0.31,0c-0.57,0-0.86-0.45-0.62-0.97c0.06-0.14,0.17-0.15,0.29-0.15c0.63,0,1.25,0.01,1.88-0.01
		c0.18,0,0.33,0.14,0.32,0.33C52.92,57.07,52.93,57.56,52.93,58.05z"/>
	<path class="st1" d="M12.14,56.01c0,0.64,0.01,1.29,0,1.93c-0.02,0.92-0.62,1.75-1.5,1.99c-0.95,0.26-1.92,0.25-2.86-0.09
		c-0.73-0.26-1.16-0.79-1.19-1.55c-0.05-1.49-0.03-2.98-0.05-4.47c0-0.22,0.1-0.27,0.3-0.29c1.32-0.1,1.32-0.11,1.32,1.2
		c0,1,0,2,0,2.99c0,0.52,0.37,1,0.89,1.06c0.24,0.03,0.49,0.01,0.73-0.02c0.47-0.06,0.72-0.32,0.72-0.81c0-1.32,0.04-2.65,0.01-3.97
		c-0.01-0.38,0.1-0.45,0.44-0.45c1.17,0,1.17-0.01,1.17,1.15C12.14,55.13,12.14,55.57,12.14,56.01z"/>
	<path d="M56.96,53.54c1,0,1,0,1.33,0.91c0.61,1.72,1.22,3.43,1.84,5.15c0.11,0.29,0.06,0.41-0.26,0.38c-0.05-0.01-0.1,0-0.15,0
		c-1.04,0.01-1.05,0.01-1.41-0.99c-0.09-0.24-0.19-0.39-0.5-0.38c-0.6,0.03-1.2,0.02-1.79,0c-0.21-0.01-0.39,0.12-0.47,0.31
		c-0.41,1.1-0.42,1.08-1.57,1.05c-0.32-0.01-0.36-0.07-0.25-0.38c0.68-1.84,1.34-3.68,1.98-5.54c0.15-0.44,0.36-0.6,0.8-0.53
		C56.65,53.56,56.81,53.54,56.96,53.54z"/>
	<path class="st2" d="M27.89,56.72c0-0.92,0.01-1.83-0.01-2.75c-0.01-0.33,0.08-0.44,0.42-0.43c1.24,0.02,2.48,0.01,3.71,0
		c0.28,0,0.38,0.07,0.39,0.37c0.02,0.87,0.03,0.87-0.83,0.86c-0.58,0-1.15,0.01-1.73,0c-0.26,0-0.36,0.08-0.35,0.35
		c0.03,1.23-0.17,0.97,0.97,1c0.24,0.01,0.47,0,0.71,0c0.69,0,0.66,0,0.72,0.67c0.04,0.47-0.12,0.58-0.56,0.55
		c-0.49-0.04-0.98,0-1.48-0.01c-0.29-0.01-0.37,0.1-0.37,0.39c-0.01,1.02-0.02,1.02,1,1.02c0.51,0,1.02,0.01,1.53,0
		c0.31-0.01,0.46,0.05,0.45,0.42c-0.04,0.96,0.16,0.83-0.83,0.84c-1.07,0.01-2.14-0.02-3.21,0.01c-0.47,0.02-0.57-0.15-0.56-0.58
		C27.91,58.51,27.89,57.61,27.89,56.72z"/>
	<path class="st1" d="M35.88,53.39c0.45,0.01,0.88,0.07,1.31,0.16c0.71,0.15,0.69,0.16,0.72,0.89c0.02,0.45-0.05,0.6-0.55,0.43
		c-0.59-0.2-1.22-0.28-1.85-0.16c-0.34,0.07-0.6,0.2-0.62,0.61c-0.02,0.4,0.19,0.58,0.55,0.66c0.46,0.1,0.92,0.2,1.38,0.32
		c1.04,0.27,1.35,0.67,1.35,1.71c0,1.05-0.45,1.68-1.39,1.92c-0.94,0.24-1.87,0.17-2.81-0.03c-0.41-0.09-0.59-0.26-0.56-0.72
		c0.05-0.69,0.01-0.67,0.71-0.53c0.64,0.13,1.3,0.26,1.96,0.11c0.26-0.06,0.48-0.17,0.54-0.46c0.08-0.41-0.04-0.7-0.48-0.8
		c-0.44-0.1-0.89-0.2-1.34-0.3c-1.11-0.25-1.46-0.68-1.45-1.79c0.01-1.08,0.5-1.71,1.52-1.9C35.2,53.44,35.54,53.42,35.88,53.39z"/>
	<path class="st1" d="M39.29,56.73c0-0.91,0.01-1.83-0.01-2.74c-0.01-0.31,0.04-0.45,0.41-0.45c1.37,0,1.19-0.03,1.21,1.76
		c0.01,1.03-0.06,2.07-0.01,3.1c0.02,0.31,0.16,0.36,0.48,0.35c0.62-0.02,1.24,0.02,1.87-0.01c0.33-0.01,0.45,0.06,0.44,0.41
		c-0.03,0.96,0.08,0.83-0.8,0.83c-1.02,0.01-2.03-0.01-3.05,0.01c-0.4,0.01-0.57-0.06-0.55-0.52
		C39.32,58.56,39.29,57.64,39.29,56.73z"/>
	<path class="st2" d="M46.26,56.78c0,0.94-0.02,1.87,0.01,2.81c0.01,0.34-0.11,0.39-0.4,0.4c-1.21,0.02-1.21,0.03-1.21-1.18
		c0-1.57,0.01-3.15-0.01-4.72c0-0.4,0.08-0.57,0.53-0.56c1.11,0.03,1.11,0,1.1,1.1c0,0.37,0.01,0.73,0.01,1.1c0,0.35,0,0.7,0,1.05
		C46.28,56.78,46.27,56.78,46.26,56.78z"/>
	<path class="st3" d="M19.55,25.22c0.01,0.12,0.08,0.18,0.16,0.19c0.75,0.14,0.9,0.66,0.93,1.33c0.03,0.74,0.15,1.48,0.24,2.22
		c0.03,0.2,0.06,0.37-0.19,0.44c-0.24,0.07-0.16,0.26-0.15,0.42c0.11,1.35,0.18,2.7,0.21,4.06c0.02,0.87-0.34,1.5-1.06,1.94
		c-0.3,0.19-0.62,0.35-0.92,0.54c-0.23,0.15-0.59,0.16-0.58,0.58c0,0.12-0.21,0.14-0.34,0.2c-1.86,0.87-3.82,1.49-5.74,2.21
		c-1.85,0.7-3.71,1.4-5.25,2.69c-0.47,0.39-1.13,1.13-1.43,1.67C5.3,44.01,5.11,44.2,4.77,44.1C4.46,44,4.31,43.79,4.32,43.45
		c0.01-0.25,0.03-0.49-0.15-0.72c-0.09-0.11-0.05-0.28,0.07-0.42c0.18-0.21,0.25-0.47,0.14-0.75c-0.06-0.16-0.02-0.31,0.1-0.42
		c0.44-0.38,0.69-0.91,1.09-1.33c0.22-0.23,0.48-0.48,0.35-0.89C5.88,38.81,6,38.68,6.11,38.6c0.1-0.07,0.23-0.15,0.2-0.27
		c-0.14-0.53,0.3-0.6,0.6-0.78c0.33-0.2,0.64-0.11,0.97,0.05c1.24,0.61,1.87,0.52,2.9-0.41c1.2-1.07,2.33-2.22,3.68-3.12
		c0.49-0.32,1-0.59,1.56-0.72c0.18-0.04,0.26-0.19,0.19-0.36c-0.47-1.05-0.88-2.13-1.16-3.25c-0.03-0.12-0.07-0.24-0.21-0.25
		c-0.42-0.03-0.48-0.35-0.57-0.67c-0.76-2.7-1.24-5.45-1.07-8.3c-0.44,0.21-0.44-0.08-0.42-0.38c0.13-2.64,0.62-5.21,1.42-7.73
		c0.15-0.46,0.51-0.85,0.97-0.99c0.2-0.06,0.39-0.16,0.59-0.23c-0.02-0.14-0.11-0.14-0.19-0.15c-1.09-0.08-2.18-0.14-3.27-0.24
		c-0.26-0.02-0.52,0.06-0.71,0.23c-1.27,1.11-2.56,2.21-3.84,3.3c-0.21,0.17-0.39,0.39-0.48,0.64c-0.38,1.08-1.77,1.95-2.9,1.82
		c-0.22-0.02-0.48-0.07-0.55-0.3c-0.09-0.26,0.2-0.32,0.35-0.43c0.31-0.24,0.65-0.43,0.93-0.81c-0.38,0.12-0.69,0.22-1.01,0.31
		c-0.17,0.05-0.35,0.06-0.42-0.16c-0.07-0.2,0.06-0.32,0.24-0.38c0.65-0.2,1.17-0.59,1.59-1.13c0.17-0.23,0.42-0.42,0.72-0.45
		c0.29-0.03,0.44-0.21,0.6-0.42C8,11.46,9.22,9.9,10.56,8.43C10.77,8.2,10.98,8,11.3,7.94c0.3-0.06,0.71,0.05,0.82-0.37
		c0.03-0.11,0.17-0.2,0.28-0.21c2.18-0.19,4.36-0.33,6.55-0.03c0.35,0.05,0.69,0.12,1.04,0.17c0.16-1.12,0.15-2.26,1.63-3.12
		c0.72-0.42,1.6-0.46,2.38-0.18c0.93,0.33,1.7,0.85,2.17,1.73c0.18,0.34,0.22,0.75,0.08,1.11c-0.28,0.69-0.28,1.41-0.19,2.14
		c0.02,0.19,0.07,0.38-0.13,0.51c-0.57,0.37-0.76,0.98-1.01,1.55c-0.14,0.34-0.3,0.49-0.71,0.45c-1.2-0.11-1.22-0.09-1.69,0.99
		c-0.68,1.56-1.24,3.17-1.67,4.81c-0.31,1.21-0.12,0.8,3.7,1.01c0.93,0.05,1.81,0.36,2.69,0.66c0.38,0.13,0.8,0,0.88,0.46
		c0.03,0.19,0.21,0.19,0.36,0.21c1.41,0.22,2.79,0.58,4.1,1.16c0.46,0.2,0.94,0.13,1.41,0.13c2,0.01,3.72,0.9,5.47,1.68
		c2.79,1.25,5.71,1.92,8.77,1.95c0.32,0,0.65-0.02,0.96,0.1c0.45,0.17,0.52,0.46,0.21,0.83c-0.21,0.25-0.34,0.62-0.79,0.43
		c-0.02-0.01-0.12,0.11-0.14,0.18c-0.05,0.15-0.18,0.24-0.3,0.24c-0.96-0.01-1.66,0.67-2.51,0.95c-0.12,0.04-0.18,0.13-0.23,0.25
		c-0.09,0.21-0.26,0.3-0.49,0.22c-0.08-0.03-0.2-0.08-0.23,0c-0.19,0.69-0.75,0.33-1.13,0.38c-0.42,0.06-0.65-0.29-0.75-0.69
		c-0.32-1.3-0.31-1.23-1.79-1.44c-1.17-0.16-2.35-0.15-3.53-0.09c-0.78,0.04-1.55,0-2.33-0.11c-0.58-0.08-1.1-0.35-1.58-0.68
		c-0.37-0.25-0.78-0.36-1.22-0.37c-1.51-0.03-3.01-0.07-4.52-0.11c-0.13,0-0.32-0.06-0.37,0.08c-0.15,0.44-0.5,0.32-0.8,0.32
		C24.3,25.22,21.93,25.22,19.55,25.22z"/>
	<path class="st3" d="M56.82,20.52c-0.03,1.82-1.52,3.29-3.33,3.27c-1.84-0.02-3.34-1.53-3.31-3.34c0.02-1.82,1.55-3.34,3.31-3.3
		C55.38,17.19,56.84,18.67,56.82,20.52z"/>
	<path class="st4" d="M2.6,57.23c0.15,0,0.3,0,0.46,0c0.66,0.01,0.9,0.25,0.88,0.89c-0.01,0.57-0.23,0.77-0.88,0.78
		c-0.3,0.01-0.61-0.02-0.91,0.01c-0.37,0.04-0.48-0.13-0.44-0.47c0.01-0.1,0.01-0.2,0.01-0.3C1.71,57.23,1.71,57.23,2.6,57.23z"/>
	<path class="st4" d="M2.54,56.23c-0.84,0-0.84,0-0.83-0.85c0-0.1,0.02-0.2,0-0.3c-0.06-0.36,0.08-0.48,0.44-0.45
		c0.3,0.03,0.61,0,0.91,0.01c0.55,0.02,0.78,0.26,0.77,0.78c0,0.55-0.2,0.77-0.74,0.81C2.91,56.24,2.72,56.23,2.54,56.23z"/>
	<path class="st4" d="M22.69,56.68c0-0.51,0.03-1.02-0.01-1.52c-0.03-0.4,0.13-0.51,0.49-0.47c0.13,0.02,0.27,0,0.4,0
		c1.19,0.01,1.48,0.27,1.58,1.47c0.04,0.51,0.02,1.01-0.06,1.52c-0.09,0.55-0.58,0.96-1.14,0.98c-1.27,0.05-1.27,0.05-1.27-1.22
		C22.69,57.19,22.69,56.93,22.69,56.68z"/>
	<path class="st4" d="M56.93,54.57c0.31,0.98,0.59,1.84,0.86,2.7c0.05,0.16-0.04,0.21-0.19,0.21c-0.46,0-0.91,0-1.37,0
		c-0.14,0-0.25-0.05-0.2-0.21C56.32,56.4,56.61,55.55,56.93,54.57z"/>
</g>
</svg>
