<?xml version="1.0" encoding="utf-8"?>
<!-- Generator: Adobe Illustrator 26.3.1, SVG Export Plug-In . SVG Version: 6.00 Build 0)  -->
<svg version="1.1" id="Capa_1" xmlns="http://www.w3.org/2000/svg" xmlns:xlink="http://www.w3.org/1999/xlink" x="0px" y="0px"
	 viewBox="0 0 1142 352" style="enable-background:new 0 0 1142 352;" xml:space="preserve">
<style type="text/css">
	.st0{fill:#7C227C;}
	.st1{fill:#C32B26;}
	.st2{fill:#1F1E21;}
	.st3{fill:#3C5399;}
	.st4{fill:#D57C2C;}
	.st5{fill:#010000;}
	.st6{fill:#020001;}
	.st7{fill:#5B82BD;}
	.st8{fill:#F8E437;}
	.st9{fill:#61A244;}
</style>
<path class="st0" d="M146.3,3.4c4.8-1.5,9.8-2.4,14.8-2.1c4.3,22.9,8.5,45.8,12.8,68.7c0.4,1.6,0.7,4.2-1.7,4.2
	c-21.1,3.9-40.5,16.4-52.4,34.3c-1.5,2.1-2.5,4.6-4.5,6.4c-2.5-0.5-4.5-2.1-6.6-3.3c-16.6-9.7-33.2-19.3-49.8-29
	c-2.5-1.5-5.2-2.7-7.4-4.6c0-1.1,0.3-2.1,0.9-3C72.7,40,107.2,13.7,146.3,3.4z"/>
<path class="st1" d="M178.2,19.7c44.6-7.3,91.9,6.6,125.8,36.4c1.1,0.8,1.3,2.4,0.1,3.3c-14.9,17.3-29.9,34.5-44.8,51.8
	c-1.1,1.5-3.2,3.2-4.7,1.1c-14.4-12.5-33.3-19.7-52.4-19.7c-5-0.2-10,0.9-15.1,0.9c-3.6-23.4-6.9-46.8-10.4-70.2
	C176.4,22,176.3,19.7,178.2,19.7L178.2,19.7z"/>
<path class="st2" d="M811.4,66.9c11.2-2.9,23.9,3.6,27.9,14.5c3,7.8,1.5,17-3.8,23.5c-6.3,8.1-18.2,11.4-27.8,7.3
	c-9.8-3.8-15.7-14.7-14.2-25C794.5,77.6,802,69.1,811.4,66.9L811.4,66.9z M424,91.1c14.1-0.1,28.2-0.1,42.3,0
	c-0.1,41.8,0,83.5-0.1,125.3c17,0.2,34.1,0,51.1,0.1c0,12.3,0,24.6,0,36.9c-31.1,0-62.2,0-93.3,0C424,199.3,424.1,145.2,424,91.1
	L424,91.1z M686.3,91.1c14.1,0,28.2-0.1,42.3,0c-0.2,41.7,0,83.5-0.1,125.2c17,0.2,34,0,51.1,0.1c0,12.3,0,24.6,0,36.9
	c-31.1,0-62.2,0-93.2,0C686.3,199.3,686.4,145.2,686.3,91.1L686.3,91.1z M539.6,144.2c9.2-11.8,22.8-20.2,37.6-22.7
	c10.4-1.6,21.4-1,31,3.6c6,2.8,11.1,7,16.1,11.3c0.1-4.4,0-8.7,0-13.1c12.9,0,25.9,0,38.8,0c0.1,43.4,0.1,86.8,0,130.2
	c-13.2-0.1-26.3,0.1-39.5-0.1c0-4.2,0-8.3,0.1-12.5c-9.7,9.4-22.9,15.2-36.4,15.7c-16.2,0.7-33-4.6-44.5-16.2
	c-12.3-12.2-17.8-29.6-18.5-46.6C523.2,176.1,528.6,158,539.6,144.2 M589.8,157.6c-7.6,1-14.9,5.1-19.5,11.3
	c-10,13.5-7.8,34.7,4.9,45.8c12.3,10.3,32.2,7.7,42.6-4.2c11.1-12.5,10.1-33.7-2-45.2C609,158.8,599.1,156.2,589.8,157.6
	L589.8,157.6z M874.1,134.3c18.2-17,49.3-18.7,68.4-2.2c2.1,1.8,4.1,3.7,6,5.6c0-4.8,0-9.7,0-14.5c12.5,0.1,25.1,0,37.6,0
	c0,38.5,0,77,0,115.5c0,15.1-5.1,30.6-16,41.5c-12.6,12.9-30.9,18.6-48.6,18.9c-17.6,0.3-36-4.1-49.5-15.8
	c-8.8-7.4-14.6-18.2-16.3-29.6c14.6,0,29.3-0.1,43.9,0.1c3.1,3.9,6.3,8.3,11.5,9.5c7.2,1.6,14.9,1.3,21.9-1
	c5.7-2,10.9-6.2,12.8-12.1c1.5-5.2,1-10.7,0.9-16c-10.9,9.1-24.7,15.4-39,14.9c-13.6-0.3-27-6-36.5-15.8
	c-12.5-12.7-18.2-30.9-17.9-48.4C853.3,166.2,860.1,147,874.1,134.3 M911,155.5c-5.9,1.6-11,5.5-14.3,10.6
	c-5.3,8.3-6.4,18.7-4.4,28.2c1.8,8.1,6.8,15.7,14.4,19.2c11.5,5.3,26.5,2.3,34.6-7.6c5.8-6.8,8.2-16.2,7-25
	c-0.9-8.7-5.2-17.5-12.9-22.1C928.2,154.4,919.1,153.5,911,155.5L911,155.5z M1033.5,130.2c13-8.5,29.4-11.6,44.6-8.2
	c9.6,2.1,17.7,8.1,25,14.5c0-4.4,0-8.8,0-13.3c13,0.1,25.9-0.1,38.9,0.1v130.1c-13.2,0-26.4,0-39.7,0c0-4.1,0-8.3,0-12.4
	c-4.4,4.1-9.3,7.7-14.8,10.2c-14.6,7.1-32,6.9-47.1,1.3c-13.9-5.2-25.2-16.4-31-29.9c-6.1-14-7.8-29.8-5.7-44.9
	C1006.6,158.7,1017.3,140.8,1033.5,130.2 M1067.8,157.7c-9.8,1.5-18.6,8.2-22.3,17.4c-5.5,13.3-2.4,30.3,8.7,39.8
	c12.3,10.2,32.3,7.4,42.5-4.5c11.1-12.7,9.9-34-2.5-45.4C1087.1,158.5,1077.1,156.1,1067.8,157.7L1067.8,157.7z M797,123.3
	c13.1,0,26.2,0,39.3,0c0,43.4,0,86.8,0,130.1c-13.1,0-26.2,0-39.3,0C797,210,797.1,166.6,797,123.3z"/>
<path class="st3" d="M26.1,78.5c1.4-0.1,2.5,0.9,3.8,1.4c19.9,10.8,39.8,21.3,59.7,32.1c1.9,0.6,1.9,2.6,0.9,4
	c-10.3,19.1-12.4,42.5-5.3,63c0.6,1.9,1.5,3.8,1.7,5.9c-0.5,1.4-2.2,1.5-3.3,2.2c-21,8-41.9,16.1-62.8,24.2
	c-1.3,0.4-3.3,1.3-3.8-0.6C0,169.1,3.1,120.2,24.2,80.7C24.6,79.9,25.3,79.1,26.1,78.5z"/>
<path class="st4" d="M299,83.1c1.1-1.2,2.6-0.6,3.5,0.5c32.8,30.7,51.1,76.4,48.2,121.3c0.2,2.1-2.5,1.7-3.8,1.7
	c-22.9-1.2-45.9-2.2-68.8-3.4c-2.3,0.1-2.1-2.7-2-4.3c0.5-12.3-2.1-24.7-7.2-35.9c-4.5-10.3-11.7-19.1-19.7-27
	c1.3-1.7,2.7-3.3,4.1-4.8C268.6,115.2,283.7,99,299,83.1z"/>
<path class="st5" d="M162.7,120.7c11.9-2.2,24.5-0.8,35.4,4.3c14.3,6.5,25.7,19,30.8,33.9c5.2,14.8,4.2,31.8-3.1,45.8
	c-6.5,12.9-18,23.2-31.6,28.3c-11.5,4.4-24.4,4.9-36.2,1.6c-15.2-4.2-28.5-14.8-36-28.8c-6.9-12.7-8.7-27.9-5.2-41.9
	C122.2,142.3,140.8,124.6,162.7,120.7 M129.9,147.2c2-1,4-2,6-3c-2.4,5.8-4,12.1-3.4,18.4c5.1,2.4,10.4,4.3,15.2,7.2
	c-5.5-0.9-10.9-2.2-16.4-3.2c-4.2,4.8-6.6,10.8-8.3,16.9c-1.1-2.1-2.2-4.3-3.1-6.4c0.1,12.1,3.9,24,11.1,33.7c-0.5-2.3-1-4.7-1.4-7
	c4.9,4.1,10.3,7.7,16.7,8.9c3.8-4.1,7.3-8.5,11.4-12.2c-2.3,5.1-5.3,9.7-8,14.6c3.1,5.6,8.3,9.7,13.6,13.1c-2.3,0.3-4.6,0.6-6.9,1
	c5.9,1.5,11.8,2.9,17.9,2.8c5.8,0,11.5-1.3,17-2.7c-2.3-0.3-4.6-0.7-6.9-1c5.4-3.4,10.4-7.5,13.6-13.1c-2.7-4.9-5.7-9.6-8-14.6
	c4.2,3.7,7.6,8.1,11.4,12.2c6.3-1.3,11.8-4.9,16.6-8.9c-0.4,2.3-0.9,4.6-1.4,6.9c7.2-9.6,10.8-21.5,11.1-33.5c-1,2.1-2,4.2-3.1,6.2
	c-1.9-6-4.1-12-8.4-16.8c-5.5,1.1-10.9,2.4-16.5,3.2c4.8-2.9,10.2-4.8,15.2-7.2c0.5-6.3-1-12.6-3.5-18.4c2,1,4,2,6,3
	c-6.8-9.8-17.1-16.7-28.2-20.6c1.8,1.7,3.4,3.5,5.1,5.2c-6.3-0.6-12.7-0.1-18.6,2.4c-0.8,5.6-1.1,11.3-2.2,16.9
	c-0.8-5.6-1.3-11.2-2-16.8c-5.8-2.7-12.3-3.1-18.6-2.5c1.8-2,3.7-3.9,5.9-5.5C147.5,130.2,136.9,137.1,129.9,147.2L129.9,147.2z"/>
<path class="st6" d="M150.1,170.2c8-5.6,15.8-11.5,23.8-17.1c7.9,5.9,15.9,11.4,23.7,17.4c-3,9.3-6.1,18.5-9,27.8
	c-9.8,0.1-19.7,0-29.5,0C156.2,189,152.8,179.7,150.1,170.2z"/>
<path class="st7" d="M63.6,204.8c2.3-1,4.5-2,7-2.5c1.9,2.2,2.8,4.9,4.1,7.4c10,19.7,28.7,34.2,49.8,40.3c-0.4,2.1-0.9,4.2-1.5,6.3
	c-5.8,18.3-11.4,36.6-17.1,54.9c-1,3-1.7,6.2-3,9.1c-1,1.4-2.7,0.4-4,0.2C55.9,307,19.7,274,2.7,232.4v-0.9
	C22.8,222.2,43.3,213.9,63.6,204.8L63.6,204.8z"/>
<path class="st8" d="M254.2,211.9c1.5-0.7,3.2-0.3,4.8-0.3c23,1.9,46.1,3.5,69.1,5.5c0.1,1.2,0.2,2.4,0.2,3.7
	c-3.3,44.4-27.2,86.8-63.4,112.8c-1.6,1.6-3.3-0.3-4.1-1.6c-13.4-18.5-27.1-36.9-40.5-55.4c-1.6-1.6,0.1-3.3,1.5-4.2
	c16.3-12,27.5-30.4,31-50.3C253.3,218.6,253.2,215.1,254.2,211.9L254.2,211.9z"/>
<path class="st9" d="M197.4,262c1.3-0.9,2.2,0.9,2.9,1.7c12.6,18.7,25.1,37.4,37.6,56c0.6,0.9,1.1,1.8,1.6,2.8
	c0.1,1.5-1.5,2.2-2.5,3c-19.4,12.9-41.8,21.3-64.9,24.4c-3.9,0.8-7.9,1.1-11.9,0.6c-8,0.1-16-0.4-24,0.5c-9.2-1.9-18.8-2.7-27.7-5.8
	c-1.6-0.4-0.8-2.5-0.6-3.7c6.1-21.9,12.1-43.8,18.2-65.8c0-2.3,2.3-3.1,4.2-2.1c14.7,4,30.5,3.6,45-0.9
	C183.2,270.4,190.4,266.2,197.4,262L197.4,262z"/>
</svg>
