<?xml version="1.0" encoding="utf-8"?>
<!-- Generator: Adobe Illustrator 26.3.1, SVG Export Plug-In . SVG Version: 6.00 Build 0)  -->
<svg version="1.1" id="Capa_1" xmlns="http://www.w3.org/2000/svg" xmlns:xlink="http://www.w3.org/1999/xlink" x="0px" y="0px"
	 viewBox="0 0 69.91 99.91" style="enable-background:new 0 0 69.91 99.91;" xml:space="preserve">
<style type="text/css">
	.st0{fill:#091C3E;}
	.st1{fill:#CCFA0A;}
	.st2{fill:#FEFEFE;}
	.st3{fill:#06C066;}
	.st4{fill:#FDFDFD;}
	.st5{fill:#06C067;}
	.st6{fill:#FBFCFC;}
	.st7{fill:#0F2142;}
</style>
<g>
	<path class="st0" d="M0.06,49.96c0-16.41,0-32.82-0.01-49.23c0-0.59,0.11-0.77,0.77-0.77c22.82,0.02,45.64,0.02,68.47,0
		c0.65,0,0.77,0.18,0.77,0.77c-0.02,32.82-0.02,65.64,0,98.46c0,0.59-0.11,0.77-0.77,0.77c-22.82-0.02-45.64-0.02-68.47,0
		c-0.65,0-0.77-0.18-0.77-0.77C0.07,82.78,0.06,66.37,0.06,49.96z"/>
	<path class="st1" d="M48.91,19.21c1.16,1.44,2.22,2.89,3.25,4.36c2.91,4.14,5.51,8.45,7.57,13.06c0.15,0.33,0.15,0.58-0.01,0.91
		c-3.39,6.9-7.46,13.4-12.38,19.38c-0.35,0.43-0.74,0.64-1.29,0.71c-4.2,0.57-8.42,0.71-12.66,0.63c-2.88-0.06-5.74-0.28-8.61-0.5
		c-0.46-0.03-0.59-0.1-0.3-0.55c1.57-2.42,3.12-4.84,4.65-7.28c0.2-0.32,0.43-0.37,0.77-0.36c3.77,0.19,7.54,0.16,11.31-0.07
		c0.47-0.03,0.78-0.16,1.08-0.55c2.73-3.67,5.14-7.53,7.25-11.56c0.16-0.31,0.09-0.52-0.05-0.78c-1.6-3.05-3.4-6-5.43-8.8
		c-0.31-0.43-0.28-0.7-0.01-1.11c1.51-2.31,2.99-4.64,4.48-6.96C48.65,19.58,48.77,19.42,48.91,19.21z"/>
	<path class="st1" d="M45.94,13.4c-1.47,2.3-2.96,4.48-4.29,6.74c-0.62,1.05-1.26,1.44-2.56,1.35c-3.41-0.23-6.83-0.12-10.25,0.09
		c-0.43,0.03-0.72,0.15-0.98,0.51c-2.73,3.64-5.16,7.47-7.24,11.49c-0.18,0.35-0.19,0.6,0,0.94c1.67,3.04,3.48,6,5.51,8.83
		c0.23,0.32,0.28,0.54,0.04,0.9c-1.56,2.37-3.09,4.77-4.61,7.16c-0.21,0.33-0.31,0.52-0.65,0.08c-4.09-5.3-7.69-10.89-10.48-16.95
		c-0.17-0.37-0.15-0.66,0.02-1.02c3.36-7.01,7.54-13.53,12.53-19.56c0.23-0.27,0.47-0.4,0.83-0.44c5.17-0.58,10.35-0.73,15.54-0.57
		C41.52,13.01,43.68,13.15,45.94,13.4z"/>
	<path class="st2" d="M35.06,28.98c3.74,0,6.76,2.93,6.75,6.56c-0.01,3.63-3.04,6.57-6.77,6.56c-3.73,0-6.75-2.95-6.75-6.58
		C28.29,31.9,31.3,28.98,35.06,28.98z"/>
	<path class="st2" d="M33.4,68.97c0-0.73,0.01-1.46-0.01-2.19c-0.01-0.3,0.1-0.36,0.39-0.37c1.54-0.06,1.54-0.07,1.54,1.44
		c0,0.89-0.01,1.79,0,2.68c0.01,1.06,0.73,1.77,1.73,1.75c0.98-0.02,1.63-0.72,1.64-1.76c0.01-1.24,0.04-2.48,0.03-3.71
		c0-0.34,0.13-0.39,0.44-0.4c1.51-0.04,1.51-0.05,1.51,1.4c0,1.04,0.03,2.07-0.03,3.11c-0.1,1.7-1.06,2.68-2.81,2.99
		c-1.82,0.32-3.47-0.36-4.12-1.69c-0.23-0.47-0.33-0.96-0.32-1.47C33.4,70.15,33.4,69.56,33.4,68.97z"/>
	<path class="st2" d="M31.67,71.56c0,0.2,0,0.41,0,0.61c0,1.04-0.02,1.08-1.01,1.44c-1.14,0.42-2.31,0.49-3.49,0.15
		c-1.9-0.55-2.95-1.99-2.88-3.91c0.06-1.62,1.4-3.07,3.2-3.43c1.21-0.24,2.4-0.15,3.57,0.24c0.3,0.1,0.46,0.22,0.32,0.57
		c-0.15,0.38-0.13,0.9-0.39,1.13c-0.25,0.22-0.69-0.17-1.07-0.23c-0.54-0.08-1.07-0.17-1.61-0.09c-1.4,0.21-2.17,1.12-2.01,2.38
		c0.15,1.17,1.34,2.05,2.62,1.93c0.93-0.09,0.98-0.14,0.98-1.06c0-1.12,0.01-1.08,1.11-1.24c0.56-0.08,0.75,0.05,0.67,0.59
		C31.64,70.95,31.67,71.26,31.67,71.56z"/>
	<path class="st2" d="M42.71,70.12c0-1.08,0.01-2.15-0.01-3.23c-0.01-0.35,0.06-0.5,0.47-0.49c1.56,0.03,3.13,0.02,4.69,0
		c0.33,0,0.47,0.04,0.47,0.42C48.34,68,48.36,68,47.14,68c-0.58,0-1.17,0.04-1.75-0.01c-0.6-0.06-0.77,0.12-0.75,0.71
		c0.02,0.5,0.13,0.67,0.66,0.63c0.6-0.05,1.21,0.01,1.81-0.02c0.42-0.02,0.53,0.11,0.52,0.51c-0.01,1.01,0.01,1.01-1,1.01
		c-0.5,0-1,0.03-1.5-0.01c-0.4-0.03-0.48,0.13-0.48,0.48c0,0.99-0.01,0.99,1.01,0.99c0.75,0,1.5,0.02,2.25-0.01
		c0.38-0.01,0.54,0.06,0.54,0.49c-0.01,1.1,0.01,1.11-1.14,1.11c-1.38,0-2.75-0.01-4.13,0.01c-0.37,0.01-0.51-0.08-0.5-0.47
		C42.73,72.31,42.71,71.22,42.71,70.12z"/>
	<path class="st3" d="M36.44,82.95c0-1.12,0.02-2.23-0.01-3.35c-0.01-0.41,0.14-0.52,0.54-0.51c1.52,0.02,3.05,0.04,4.57,0
		c0.69-0.02,0.5,0.42,0.52,0.76c0.03,0.38,0.06,0.71-0.55,0.68c-0.98-0.05-1.96,0-2.94-0.02c-0.39-0.01-0.55,0.08-0.56,0.5
		c-0.02,1.35-0.04,1.35,1.37,1.35c0.69,0,1.38,0.03,2.06-0.01c0.58-0.04,0.51,0.32,0.5,0.66c-0.01,0.33,0.11,0.7-0.48,0.68
		c-0.98-0.04-1.96,0-2.94-0.02c-0.38-0.01-0.5,0.11-0.51,0.49c-0.04,1.38-0.05,1.38,1.33,1.38c0.75,0,1.5,0.01,2.25-0.01
		c0.34-0.01,0.47,0.09,0.47,0.44c0.01,0.91,0.03,0.91-0.87,0.91c-1.36,0-2.71-0.03-4.07,0.02c-0.61,0.02-0.73-0.19-0.71-0.72
		C36.47,85.11,36.44,84.03,36.44,82.95z"/>
	<path class="st4" d="M15.08,86.27c-2,1.51-4.51,0.64-5.01-1.41c-0.14-0.58-0.12-1.17-0.12-1.76c0-1.16,0.03-2.31-0.01-3.47
		c-0.02-0.49,0.22-0.52,0.6-0.5c0.34,0.02,0.7-0.1,0.68,0.48c-0.04,1.42-0.03,2.84-0.01,4.26c0.02,1.28,0.74,2.04,1.88,2.05
		c1.15,0.01,1.93-0.74,1.94-1.92c0.02-1.46,0.03-2.92-0.01-4.38c-0.01-0.46,0.17-0.52,0.53-0.48c0.33,0.03,0.74-0.18,0.73,0.47
		c-0.04,2.23-0.01,4.46-0.02,6.7c0,0.24,0.22,0.69-0.36,0.63C15.52,86.9,14.84,87.25,15.08,86.27z"/>
	<path class="st5" d="M49.17,84.05c0,0.79-0.02,1.58,0.01,2.37c0.01,0.38-0.14,0.55-0.51,0.47c-0.38-0.09-0.87,0.29-1.15-0.28
		c-0.06-0.12-0.29,0.07-0.43,0.13c-1.16,0.53-2.43,0.34-3.35-0.5c-0.93-0.85-1.2-2.21-0.68-3.42c0.45-1.05,1.62-1.79,2.82-1.79
		c0.54,0,1.03,0.39,1.47,0.36c0.43-0.02,0.88-0.26,1.38-0.25c0.37,0.01,0.46,0.14,0.45,0.47C49.16,82.43,49.17,83.24,49.17,84.05z"
		/>
	<path class="st2" d="M18.51,86.38c0.03,0.75-0.53,0.49-0.91,0.5c-0.53,0.01-0.29-0.41-0.29-0.63c-0.02-2.19,0.01-4.38-0.03-6.58
		c-0.01-0.51,0.21-0.54,0.62-0.54c0.42-0.01,0.6,0.09,0.57,0.53c-0.04,0.69-0.01,1.38-0.01,2.25c0.8-0.68,1.65-0.86,2.56-0.76
		c0.95,0.11,1.68,0.57,2.19,1.34c0.74,1.12,0.58,2.62-0.36,3.6C21.79,87.22,20.4,87.32,18.51,86.38z"/>
	<path class="st5" d="M57.42,87.03c-0.93,0.01-1.79-0.15-2.43-0.88c-0.26-0.3-0.61-0.74-0.33-1c0.29-0.27,0.87-0.12,1.32-0.05
		c0.05,0.01,0.08,0.08,0.12,0.13c0.49,0.75,1.25,0.61,1.97,0.54c0.25-0.02,0.49-0.15,0.51-0.45c0.02-0.33-0.26-0.39-0.49-0.45
		c-0.72-0.19-1.46-0.33-2.17-0.54c-0.91-0.27-1.32-0.76-1.33-1.48c-0.01-0.76,0.46-1.39,1.32-1.65c0.96-0.29,1.93-0.28,2.88,0.08
		c0.6,0.23,0.98,0.67,1.15,1.28c0.09,0.31,0,0.46-0.36,0.44c-0.52-0.02-1.05,0.11-1.4-0.48c-0.21-0.35-1.31-0.41-1.7-0.19
		c-0.15,0.09-0.26,0.2-0.27,0.38c-0.01,0.23,0.15,0.34,0.34,0.38c0.61,0.14,1.22,0.27,1.83,0.4c1.02,0.21,1.64,0.71,1.75,1.42
		c0.16,1.04-0.67,1.94-1.94,2.09C57.92,87.02,57.67,87.02,57.42,87.03z"/>
	<path class="st4" d="M13.71,70.07c0-1.08,0.01-2.15-0.01-3.23c-0.01-0.35,0.1-0.44,0.46-0.44c1.49-0.02,1.49-0.03,1.49,1.42
		c0,1.3,0.02,2.6-0.01,3.89c-0.01,0.43,0.07,0.6,0.56,0.58c0.87-0.05,1.75,0,2.62-0.02c0.35-0.01,0.46,0.08,0.46,0.44
		c0.01,1.16,0.03,1.16-1.14,1.16c-1.29,0-2.58-0.03-3.88,0.01c-0.49,0.01-0.59-0.15-0.57-0.58C13.73,72.22,13.71,71.15,13.71,70.07z
		"/>
	<path class="st2" d="M25.35,84.49c0.39,1.54,2,2.07,3.2,1.04c0.53-0.46,0.78-0.02,1.01,0.21c0.29,0.29-0.14,0.43-0.31,0.57
		c-1,0.84-2.47,0.98-3.62,0.36c-1.05-0.57-1.67-1.75-1.53-2.91c0.16-1.27,1.01-2.22,2.26-2.54c1.89-0.47,3.68,0.97,3.63,2.89
		c-0.01,0.4-0.24,0.34-0.49,0.34c-1.35,0-2.71,0.01-4.06,0.01C25.42,84.46,25.4,84.47,25.35,84.49z"/>
	<path class="st4" d="M54.47,68.68c-0.32,0.16-0.55,0.3-0.8,0.4c-0.29,0.11-0.68,0.51-0.83,0.29c-0.26-0.38-0.28-0.92-0.37-1.39
		c-0.01-0.05,0.17-0.16,0.27-0.21c0.76-0.41,1.53-0.81,2.29-1.23c0.38-0.21,0.77-0.09,1.16-0.11c0.22-0.01,0.2,0.16,0.2,0.3
		c0,2.27,0.08,4.55-0.04,6.81c-0.04,0.73-0.92,0.18-1.39,0.32c-0.28,0.09-0.5,0.02-0.49-0.39C54.49,71.91,54.47,70.35,54.47,68.68z"
		/>
	<path class="st3" d="M50.85,84.14c0-0.24-0.01-0.49,0-0.73c0.04-0.56,0.07-1.01-0.79-0.96c-0.53,0.03-0.27-0.56-0.33-0.88
		c-0.05-0.25,0.04-0.47,0.36-0.41c0.66,0.12,0.83-0.18,0.77-0.77c-0.03-0.26-0.17-0.67,0.13-0.77c0.38-0.12,0.82-0.07,1.23-0.03
		c0.25,0.02,0.17,0.28,0.18,0.45c0.08,1.09,0.08,1.12,1.16,1.1c0.66-0.01,0.47,0.39,0.5,0.72c0.03,0.38,0.02,0.65-0.53,0.63
		c-1.11-0.02-1.11,0.01-1.11,1.08c0,0.47,0.01,0.93,0,1.4c-0.02,0.42,0.18,0.6,0.6,0.58c0.08,0,0.17,0,0.25,0
		c0.74,0.01,1.04,0.46,0.79,1.15c-0.07,0.19-0.2,0.17-0.34,0.18c-0.5,0-1,0.03-1.5-0.01c-0.74-0.05-1.22-0.48-1.31-1.22
		c-0.06-0.5-0.06-1.01-0.09-1.51C50.84,84.14,50.85,84.14,50.85,84.14z"/>
	<path class="st2" d="M20.66,70.09c0-1.06,0.01-2.11-0.01-3.17c-0.01-0.37,0.06-0.52,0.5-0.52c1.45,0.01,1.45-0.01,1.45,1.41
		c0,1.85-0.01,3.69,0.01,5.54c0,0.38-0.07,0.52-0.51,0.52c-1.44-0.01-1.44,0.01-1.44-1.36C20.66,71.71,20.66,70.9,20.66,70.09z"/>
	<path class="st6" d="M31.84,81.84c0.45-0.44,0.9-0.63,1.46-0.63c0.4,0,0.39,0.23,0.35,0.48c-0.03,0.23,0.18,0.57-0.34,0.6
		c-0.98,0.06-1.36,0.47-1.39,1.42c-0.03,0.91-0.04,1.83,0,2.74c0.02,0.47-0.22,0.48-0.56,0.46c-0.32-0.02-0.65,0.1-0.64-0.45
		c0.04-1.54,0.01-3.08,0.01-4.62c0-0.29-0.1-0.64,0.44-0.58C31.53,81.29,31.99,81.14,31.84,81.84z"/>
	<path class="st0" d="M47.6,84.12c0,0.94-0.74,1.65-1.71,1.66c-1.02,0.01-1.84-0.78-1.84-1.76c0-0.96,0.8-1.74,1.79-1.74
		C46.81,82.27,47.6,83.1,47.6,84.12z"/>
	<path class="st0" d="M20.41,82.13c1.08,0,1.99,0.88,1.99,1.93c0,1.06-0.89,1.94-1.98,1.94c-1.07,0-2.01-0.9-2.01-1.93
		C18.43,83.04,19.35,82.13,20.41,82.13z"/>
	<path class="st7" d="M27.05,83.54c-0.44,0-0.87-0.01-1.31,0c-0.39,0.02-0.42-0.15-0.27-0.43c0.34-0.62,0.88-0.98,1.6-0.97
		c0.71,0.02,1.26,0.37,1.58,1c0.13,0.25,0.13,0.41-0.24,0.4C27.96,83.52,27.5,83.54,27.05,83.54z"/>
</g>
</svg>
