<?xml version="1.0" encoding="utf-8"?>
<!-- Generator: Adobe Illustrator 26.3.1, SVG Export Plug-In . SVG Version: 6.00 Build 0)  -->
<svg version="1.1" id="Capa_1" xmlns="http://www.w3.org/2000/svg" xmlns:xlink="http://www.w3.org/1999/xlink" x="0px" y="0px"
	 viewBox="0 0 249.72 198.98" style="enable-background:new 0 0 249.72 198.98;" xml:space="preserve">
<style type="text/css">
	.st0{fill:#050908;}
	.st1{fill:#070707;}
	.st2{fill:#060606;}
	.st3{fill:#0E0E0E;}
	.st4{fill:#030303;}
	.st5{fill:#030504;}
	.st6{fill:#121413;}
	.st7{fill:#F2F2F2;}
	.st8{fill:#F1F1F1;}
	.st9{fill:#0C0F0E;}
	.st10{fill:#000302;}
	.st11{fill:#000201;}
	.st12{fill:#0B0F0E;}
	.st13{fill:#020202;}
</style>
<g>
	<path class="st0" d="M156.99,99.87c-0.74-0.42-0.57-1.26-0.42-1.97c0.62-3.11,1.26-6.2,1.92-9.3
		c6.13-28.74,12.27-57.48,18.41-86.21c0.58-2.69,0.58-2.69,2.61-2.7c7.91-0.05,15.83-0.11,23.74-0.16c1.61-0.01,1.7,0.16,1.23,2.27
		c-0.89,4.04-1.81,8.07-2.65,12.13c-0.27,1.29-0.84,1.57-1.7,1.56c-3.57-0.02-7.14-0.01-10.71,0.01c-1.99,0.01-1.99,0.03-2.55,2.64
		c-1.42,6.57-2.85,13.13-4.28,19.7c-0.25,1.16,0.08,1.79,0.99,1.79c3.57-0.03,7.14-0.09,10.71-0.11c1.66-0.01,1.81,0.28,1.34,2.49
		c-0.75,3.57-1.52,7.14-2.26,10.73c-0.26,1.28-0.78,1.86-1.8,1.86c-3.67-0.02-7.34,0.04-11.01,0.08c-1.58,0.02-1.84,0.3-2.28,2.31
		c-1.74,7.91-3.47,15.81-5.21,23.72c-0.37,1.7-0.22,2.02,1.11,2.02c4.68,0,9.36-0.04,14.05-0.06c1.55-0.01,1.71,0.28,1.31,2.32
		c-0.46,2.36-0.93,4.71-1.44,7.29c2.23-0.9,4.33-1.74,6.43-2.59c15.18-6.13,30.36-12.27,45.54-18.4c0.06-0.03,0.13-0.01,0.2-0.01
		c0.86,0.1,1.71-0.52,2.58-0.12c0.28,0.13,0.69,0.06,0.7,0.58c0.01,0.62-0.42,0.38-0.68,0.49c-0.48,0.2-1.44-0.25-1.01,1.34
		c0.1,0.39-0.63,0.43-0.75,0.96c-4.61,3.2-9.24,6.33-13.95,9.28c-0.36,0-0.71,0.28-1.07,0.2c-0.78-0.17,0.2,0.59-0.19,0.61
		c-2.74,2.11-5.63,3.86-8.45,5.75c-20.3,13.55-40.6,27.08-60.9,40.61c-23.35,15.56-46.71,31.06-70.03,46.69
		c-7.98,5.35-16.07,10.33-24.51,14.23c-5.24,2.42-10.55,4.54-16.03,5.82c-0.18-0.19-0.49,0.05-0.62-0.34
		c0.12-0.46,0.42-0.23,0.64-0.36c-1.58,1.1-3.22,0.22-4.64,0.38c0.72,0.26,0.71,0.24,1.58,0.05c0.55-0.12,1.06,0.07,1.47,0.61
		c-2.7,0.83-5.44,1.15-8.19,1.34c-6.07,0.41-12.08-0.12-17.74-3.32C8.01,190.15,1.69,179.7,0.3,164.29
		c-0.96-10.64,0.61-20.87,3.21-30.86c4.31-16.58,11.22-31.08,19.58-44.41c2.01-3.21,3.96-6.51,6.14-9.53
		c0.8,0.87,1.58,1.74,2.7,0.87c0.47-0.37,0.52,0.18,0.51,0.56c-0.03,0.67-0.11,1.33,0,2.02c0.18-0.22,0.27-0.67,0.63-0.52
		c-0.87,4.42-1.76,8.83-2.3,13.36c-1.24,10.53-1.44,20.97,1.52,31.12c1.68,5.76,4.4,10.45,8.11,14.11c2.65,2.61,5.66,3.7,8.88,3.87
		c5.17,0.28,10.17-1.18,15.12-2.92c8.97-3.14,17.79-7,26.68-10.54c13.74-5.48,27.47-11.06,41.2-16.6
		c11.51-4.65,23.02-9.3,34.54-13.95c0.22-0.09,0.46-0.13,0.68-0.2c0.49-0.06,0.88-0.54,1.12-0.58c-0.59-0.03-1.43-0.3-2.29-0.15
		c-0.09-0.06-0.17-0.13-0.25-0.22c-0.08-0.1-0.16-0.17-0.26-0.23c-2.41-0.17-4.82-0.01-7.22-0.08
		C158.07,99.68,157.57,100.06,156.99,99.87z"/>
	<path class="st0" d="M77.33,44.2c3.18-14.19,6.36-28.37,9.51-42.57c0.22-1.01,0.59-1.35,1.36-1.35c3.71,0.02,7.41-0.03,11.12-0.04
		c1.33-0.01,1.41,0.13,1.02,1.9c-4.85,22.17-9.71,44.34-14.57,66.51c-2.21,10.08-4.43,20.16-6.59,30.26
		c-0.3,1.41-0.74,1.93-1.86,1.91c-3.74-0.06-7.48,0-11.22,0.12c-0.98,0.03-1.22-0.52-1.2-1.68c0.3-14.53,0.58-29.07,0.87-43.6
		c0.01-0.45,0.06-0.91,0.02-1.36c-0.07-0.83,0.22-1.94-0.8-2.12c-1.11-0.2-1.64,0.26-1.94,1.65c-3.3,15.04-6.6,30.07-9.91,45.11
		c-0.5,2.29-0.13,2.01-2.04,2.04c-3.44,0.05-6.87,0.06-10.31,0.08c-1.5,0.01-1.52-0.03-1.1-1.94c1.65-7.57,3.29-15.14,4.94-22.71
		c4.66-21.35,9.32-42.69,13.99-64.04c0.08-0.38,0.21-0.75,0.32-1.13c0.12-0.08,0.24-0.18,0.37-0.22c1.58-0.54,1.55-0.54,1.59-2.79
		c0.03-2.02-0.27-4.07,0.25-6.06c0.47-0.43,0.96-0.18,1.44-0.06c3.36,0.07,6.72-0.03,10.09,0.01c1.55,0.01,1.75,0.26,1.76,2.34
		c0.01,9.34-0.01,18.69,0.01,28.03c0.01,3.72-0.04,7.44,0.01,11.16c0.01,0.74-0.24,1.71,0.64,2c1.06,0.35,1.68,0.02,2.16-1.19
		C77.27,44.37,77.3,44.29,77.33,44.2z"/>
	<path class="st0" d="M163.64,14.98c-2.68,5.05-5.37,10.09-8.04,15.15c-1.88,3.54-3.72,7.13-5.62,10.64c-0.81,1.5-1.2,3.02-1.1,4.92
		c0.57,10.92,1.07,21.84,1.58,32.77c0.31,6.66,0.61,13.33,0.9,19.99c0.07,1.69-0.06,1.86-1.34,1.87c-3.3,0.02-6.6,0.04-9.9,0.06
		c-1.36,0.01-1.59-0.23-1.64-2.09c-0.19-6.95-0.34-13.89-0.53-20.84c-0.15-5.95-0.33-11.89-0.49-17.84c-0.03-1-0.14-1.79-1.05-1.91
		c-1.13-0.15-1.56,0.17-1.87,1.6c-2.09,9.66-4.17,19.32-6.26,28.98c-0.76,3.53-1.53,7.05-2.25,10.59c-0.23,1.12-0.6,1.63-1.54,1.61
		c-3.54-0.04-7.07,0.05-10.61,0.08c-1.36,0.01-1.64-0.43-1.26-2.2c0.9-4.27,1.83-8.53,2.76-12.79c5.78-26.43,11.56-52.86,17.33-79.3
		c0.34-1.56,0.71-3.12,1.01-4.7c0.2-1.05,0.69-1.54,1.45-1.55c3.7-0.06,7.41-0.09,11.11-0.14c0.87-0.01,1.15,0.5,0.89,1.63
		c-1.04,4.5-2.06,9-3.09,13.5c-0.87,3.81-1.78,7.6-2.61,11.43c-0.14,0.67-0.66,1.59,0.09,2.2c0.63,0.51,2.08,0.05,2.5-0.72
		c0.75-1.39,1.47-2.82,2.21-4.23c3.93-7.48,7.87-14.95,11.78-22.44c0.53-1.02,1.15-1.51,2.1-1.49c3.13,0.05,6.26-0.01,9.4,0.01
		c0.43,0,1.03-0.35,1.28,0.4c0.23,0.69-0.16,1.3-0.45,1.85c-1.78,3.41-3.59,6.81-5.38,10.21c-0.29,0.55-0.56,1.13-0.83,1.7
		C164.19,14.46,163.97,14.78,163.64,14.98z"/>
	<path class="st0" d="M95.43,100.7c-1.79,0-3.57,0-5.36,0c-1.21,0-1.49-0.45-1.17-2.05c0.4-2.01,0.87-4,1.31-6
		c6.63-30.29,13.26-60.58,19.87-90.88c0.25-1.17,0.65-1.72,1.62-1.7c3.6,0.06,7.21,0,10.81,0c1.32,0,1.49,0.29,1.12,2
		c-3.99,18.26-7.98,36.51-11.97,54.77c-3.04,13.91-6.08,27.82-9.12,41.72c-0.46,2.09-0.46,2.1-2.06,2.11c-1.68,0.01-3.37,0-5.05,0
		C95.43,100.68,95.43,100.69,95.43,100.7z"/>
	<path class="st1" d="M61.17,2.24c0,2.53-0.04,5.06,0.02,7.58c0.03,1.14-0.24,1.6-1.08,1.41c-0.4-0.09-0.79,0.29-1.18,0
		c0.64-3.42,1.36-6.81,2.22-10.15c0.25,0.61,0.68,0.48,1.07,0.48c3.91,0,7.81,0,11.72,0.01c0.31,0,0.64-0.09,0.79-0.01
		c-4.34-0.01-8.83,0-13.39,0c0.13-0.76,0.56-0.7,0.78-0.99c1.23-0.31,2.48-0.11,3.71-0.13c3.1-0.05,6.19,0,9.29-0.09
		c1.01-0.03,1.28,0.49,1.24,1.77c-0.41,10.74-0.8,21.48-1.19,32.22c-0.1,2.67-0.2,5.35-0.24,8.02c-0.01,0.71-0.36,1.67,0.3,2.1
		c0.68,0.43,1.44,0.42,2.1-0.26c0.02,1.94,0.02,1.94-1.37,1.94c-0.2,0-0.41-0.03-0.61,0.01c-0.97,0.18-1.27-0.37-1.27-1.68
		c0.03-13.44,0-26.89,0.04-40.33c0-1.32-0.27-1.68-1.24-1.66c-3.5,0.08-7.01,0.03-10.51,0.03c0.01-0.13-0.02-0.31,0.1-0.33
		c1.06-0.15,2.11-0.05,3.17-0.09C64.16,2.15,62.67,1.99,61.17,2.24z"/>
	<path class="st2" d="M33.05,82.42c-0.39,0.18-0.38,0.83-0.69,1.11c-0.38-0.97-0.31-1.96-0.07-3.07c-0.71,0.81-1.77,0.8-2.35,0.1
		c-0.15-0.17-0.18-0.36-0.56-0.19c-0.6,0.28-0.03-0.58-0.15-0.89c0.22-0.11,0.1-0.58,0.37-0.63c0.55-0.14,0.8-0.63,0.84-1.35
		c0.09-0.39,0.29-0.65,0.56-0.84c0.28-0.18,0.61-0.22,0.78-0.7c0.26-0.75,0.66-0.53,1.04-0.16c0.53,0.23,0.56-0.26,0.6-0.81
		c0.02-0.11-0.24,0.09-0.11,0.06c0.06-0.01,0.06,0.02,0.06,0.1c-0.02,0.49-0.09,0.88-0.56,0.66c-0.14-0.1,0.09-0.74-0.39-0.4
		c-0.19,0.14-0.34-0.28-0.16-0.62c1.15-1.83,2.3-3.66,3.44-5.5c0.22-0.36,0.47-0.76,0.84-0.47c0.37,0.3,0.2,0.8,0.08,1.22
		c-0.75,2.42-1.52,4.83-2.28,7.24c-0.21,0.18-0.28-0.04-0.35-0.23c-0.02,0.2,0.09,0.33,0.14,0.5c0.05,0.18,0.06,0.35-0.04,0.5
		c-0.2,0.82-0.41,1.65-0.61,2.47c-0.19,0.29-0.09,0.96-0.6,0.82c-0.28-0.19-0.32-0.52-0.29-0.89c-0.04,0.4-0.01,0.75,0.32,0.91
		c0.18,0.22,0.17,0.54,0.22,0.82C33.09,82.25,33.07,82.34,33.05,82.42z"/>
	<path class="st2" d="M241.12,74.53c-0.15-0.13-0.15-0.31-0.03-0.43c0.39-0.36,0.84-0.64,0.2-1.31c-0.21-0.22,0.05-0.38,0.19-0.42
		c0.62-0.21,1.16-0.95,1.91-0.59c-0.61-0.14-1.12-0.65-1.78-0.39c-0.44,0.17-0.91,0.29-1.34-0.12c2.97-1.22,5.95-2.42,8.92-3.66
		c0.32-0.13,0.62-0.24,0.77,0.24c0.18,0.58-0.09,0.91-0.47,1.15C246.7,70.85,243.91,72.69,241.12,74.53z"/>
	<path class="st3" d="M166.28,99.86c0.87-0.46,1.73,0.1,2.7,0.01c-0.44,0.73-0.94,0.88-1.49,0.82c0.15-0.13,0.3-0.26,0.63-0.54
		c-3.39,0-6.6,0.01-9.8-0.01c-0.45,0-0.94,0.25-1.34-0.25c0.36-0.41,0.97-0.13,1.22-0.82c1.39,0.32,2.79,0.06,4.19,0.14
		c1.3,0.08,2.6-0.15,3.89,0.13c0,0.09,0,0.18,0,0.27c-2.3,0.31-4.61,0.06-6.92,0.13c-0.32,0.01-0.66,0.14-0.97-0.11
		c0.3,0.24,0.64,0.11,0.96,0.12C161.66,99.82,163.98,99.59,166.28,99.86z"/>
	<path class="st4" d="M62.12,0.57c0.12,0.08,0.44,0.1,0.24,0.36c-0.18,0.24-0.52,0.26-0.77,0.5c4.62,0,9.24,0,13.89,0
		c-0.16,0.42-0.4,0.27-0.58,0.27c-4.27,0.01-8.54,0.01-12.8,0c-0.37,0-0.85,0.22-0.96-0.6C61.29,0.3,61.71,0.45,62.12,0.57z"/>
	<path class="st5" d="M44.42,198.06c-0.83-0.5-1.68-0.46-2.54-0.21c-0.52,0.16-0.96-0.06-1.53-0.4c0.59-0.46,1.04-0.97,1.57-0.19
		c0.15,0.22,0.37,0.31,0.55,0.21c0.34-0.19-0.33-0.32-0.05-0.47c0.16-0.08,0.4,0.01,0.58,0.11c1.24,0.73,2.4-0.4,3.67-0.27
		c-0.26,0.63-0.78,0.2-1.11,0.5c0.17,0.15,0.3,0.26,0.43,0.38C45.48,197.91,44.97,198.14,44.42,198.06z"/>
	<path class="st0" d="M32.87,75.87c-0.38,0.02-0.97-0.76-0.94,0.68c0.02,0.76-0.62-0.14-0.94,0.11c0.42-0.63,0.84-1.26,1.26-1.89
		c0.06,0.14,0.16,0.4,0.17,0.4C33.35,74.52,32.68,75.69,32.87,75.87L32.87,75.87z"/>
	<path class="st6" d="M225.93,84.62c-0.21-0.22-0.41-0.44-0.76-0.81c0.75-0.21,1.37-0.24,2.01,0
		C226.8,84.21,226.42,84.56,225.93,84.62z"/>
	<path class="st0" d="M30.44,77.5c0.16,1.13-0.09,1.53-0.84,1.35C29.88,78.4,30.16,77.95,30.44,77.5z"/>
	<path class="st0" d="M32.87,81.33c0.32-0.12,0.35-0.61,0.6-0.82c0.03,0.61-0.15,1.14-0.35,1.66
		C32.84,81.99,32.87,81.65,32.87,81.33z"/>
	<path class="st0" d="M34.08,78.04c-0.12-0.51-0.42-0.99-0.13-1.58c0.27,0.12,0.06,0.73,0.39,0.81
		C34.29,77.55,34.36,77.9,34.08,78.04z"/>
	<path class="st7" d="M19.49,93.46c-0.14-0.13-0.12-0.26-0.06-0.36c0.06-0.09,0.14-0.2,0.23-0.22c0.13-0.03,0.16,0.11,0.09,0.23
		C19.68,93.25,19.58,93.35,19.49,93.46z"/>
	<path class="st8" d="M66.53,140.61c-0.3,0.22-0.51,0.22-0.73,0.06C65.99,140.41,66.19,140.51,66.53,140.61z"/>
	<path class="st9" d="M200.65,13.7c0.13,0.36,0.61,0.73,0,1.09c-0.32-0.32-0.7-0.27-1.07-0.27c-3.66-0.01-7.32,0.03-10.99-0.08
		c-0.18-0.01-0.33-0.07-0.47-0.19c-0.14-0.09-0.14-0.18,0-0.28c0.35-0.25,0.72-0.12,1.09-0.13c3.42-0.01,6.84-0.01,10.25-0.01
		C199.86,13.83,200.27,13.9,200.65,13.7z"/>
	<path class="st10" d="M188.12,14.24c3.85,0,7.7-0.01,11.55,0.01c0.35,0,0.85-0.3,0.98,0.53c0,0-0.1,0-0.1,0l-0.1,0
		c-0.93-0.29-1.87-0.1-2.8-0.13c-2.37-0.1-4.74,0.16-7.11-0.14c-0.63,0.06-1.26-0.14-1.88,0.16
		C188.38,14.81,188.24,14.54,188.12,14.24z"/>
	<path class="st11" d="M200.65,13.7c-0.3,0.44-0.69,0.26-1.05,0.26c-3.83,0.01-7.66,0.01-11.49,0.01c0.26-0.42,0.62-0.26,0.95-0.27
		C192.93,13.69,196.79,13.7,200.65,13.7z"/>
	<path class="st12" d="M190.55,14.52c2.95,0,5.91-0.01,8.86,0.01c0.35,0,0.75-0.18,1.04,0.26c-3.02,0-6.04,0-9.06,0
		C191.1,14.78,190.78,14.9,190.55,14.52z"/>
	<path d="M166.29,99.32c-2.38,0-4.76,0.01-7.14,0c-0.32,0-0.68,0.15-0.94-0.27c2.35,0,4.69-0.01,7.04,0.01
		C165.59,99.07,165.99,98.88,166.29,99.32z"/>
	<path class="st13" d="M166.28,99.86c-2.61,0-5.22,0-7.83,0c0-0.09,0-0.17,0-0.26c2.61,0,5.23,0,7.84,0
		C166.29,99.68,166.29,99.77,166.28,99.86z"/>
	<path class="st4" d="M61.17,2.24c1.54-0.61,3.09-0.11,4.64-0.2c-1.12,0.5-2.32-0.2-3.43,0.47C62.01,2.19,61.59,2.24,61.17,2.24z"/>
	<path class="st0" d="M32.49,79.59c0.03,0.02,0.08,0.03,0.09,0.05c0.04,0.59,0.28,1.16,0.1,1.77
		C32.15,80.93,32.74,80.14,32.49,79.59z"/>
	<path class="st0" d="M32.87,75.87c0.49-0.24,0.35-0.88,0.46-1.4C33.66,75.83,33.64,75.89,32.87,75.87L32.87,75.87z"/>
	<path class="st0" d="M30.88,78.84c0.11-0.59,0.31-1.03,0.95-1.02C31.43,78.24,31.15,78.54,30.88,78.84z"/>
	<path class="st0" d="M30.38,79.86c-0.06,0.06-0.15,0.17-0.26,0.21c-0.03,0.01-0.1-0.16-0.16-0.25c0.08-0.07,0.15-0.16,0.24-0.21
		C30.3,79.55,30.38,79.6,30.38,79.86z"/>
</g>
</svg>
