<?xml version="1.0" encoding="utf-8"?>
<!-- Generator: Adobe Illustrator 26.3.1, SVG Export Plug-In . SVG Version: 6.00 Build 0)  -->
<svg version="1.1" id="Capa_1" xmlns="http://www.w3.org/2000/svg" xmlns:xlink="http://www.w3.org/1999/xlink" x="0px" y="0px"
	 viewBox="0 0 375.66 185.7" style="enable-background:new 0 0 375.66 185.7;" xml:space="preserve">
<style type="text/css">
	.st0{fill:#46E549;}
</style>
<g>
	<path d="M224.62,143.37c0,13.41,0,26.83,0,40.24c0,0.19,0,0.39,0,0.58c0.01,0.29-0.15,0.4-0.42,0.39c-0.2-0.01-0.4,0-0.59,0
		c-7.59,0-15.17,0-22.76,0c-0.1,0-0.2,0-0.3,0c-0.9,0-0.86,0.06-0.86-0.85c0-5.54,0-11.08,0-16.62c0-18.79,0-37.59,0-56.38
		c0-0.65,0.02-1.29-0.18-1.92c-0.61-1.86-2.44-3.08-4.41-2.91c-2.03,0.17-3.62,1.71-3.81,3.72c-0.05,0.55-0.03,1.1-0.03,1.65
		c0,23.91,0,47.83,0,71.74c0,1.58,0,1.58-1.6,1.58c-7.19,0-14.38,0-21.57,0c-0.26,0-0.53,0-0.79,0c-0.91-0.01-0.85,0.08-0.85-0.84
		c0-7.16,0-14.32,0-21.48c0-17.17,0-34.35,0-51.52c0-0.61,0.02-1.22-0.16-1.83c-0.54-1.85-2.24-3.07-4.23-3.01
		c-1.91,0.06-3.53,1.38-3.96,3.22c-0.13,0.58-0.12,1.16-0.12,1.74c0,24.08,0,48.15,0,72.23c0,1.5,0,1.5-1.58,1.5
		c-7.45,0-14.91,0-22.36,0c-1.1,0-1,0.08-1-1c0-26.67,0-53.34,0-80c0-3.42,1.53-5.96,4.64-7.55c1.07-0.55,2.24-0.74,3.44-0.78
		c0.33-0.01,0.66-0.01,0.99-0.01c24.54,0,49.08,0,73.61,0c0.89,0,1.78,0.03,2.65,0.23c3.65,0.84,6.22,3.97,6.27,7.65
		c0.03,2.37,0,4.73,0,7.1C224.62,121.27,224.62,132.32,224.62,143.37z"/>
	<path d="M333.88,129.02c0.01-0.88,0.01-2.18,0.11-3.47c0.08-1.06-0.21-1.93-1.16-2.6c-1.53-1.08-2.94-2.3-4.46-3.38
		c-2.82-2.02-5.2-4.48-7.51-7.02c-4.06-4.45-7.79-9.14-10.79-14.36c-1.51-2.63-2.75-5.38-3.86-8.19c-1.07-2.72-2.22-5.4-3.71-7.94
		c-3.49-5.93-8.75-9.45-15.5-10.91c-0.8-0.17-1.63-0.26-2.46-0.26c-3.6,0-7.18-0.18-10.76-0.59c-7.4-0.86-14.5-2.67-21.01-6.38
		c-3.74-2.13-7.03-4.8-10.11-7.75c-1.91-1.84-3.8-3.69-5.72-5.51c-0.69-0.65-1.38-1.3-2.26-1.72c-0.83-0.4-1.1-0.37-1.75,0.27
		c-0.84,0.82-1.68,1.65-2.63,2.35c-2.12,1.55-4.5,2.37-7.12,2.63c-4,0.41-7.8-0.4-11.54-1.67c-3.31-1.12-6.45-2.63-9.61-4.09
		c-1.19-0.55-2.39-1.1-3.63-1.53c-0.53-0.18-1.07-0.32-1.63-0.38c-0.76-0.08-1.26,0.24-1.59,0.89c-0.36,0.71-0.48,1.48-0.58,2.25
		c-0.27,1.87-0.79,3.09-3.78,2.93c-2.91-0.16-6.03-2.65-6.64-5.45c-0.5-2.28,0.31-4.29,1.81-6.02c1.2-1.39,2.78-2.28,4.51-2.88
		c4.71-1.64,9.5-2.04,14.4-0.92c0.64,0.15,1.27,0.34,1.94,0.37c1.07,0.04,1.77-0.35,2.19-1.33c0.59-1.37,0.58-2.78,0.06-4.17
		c-0.29-0.8-0.93-1.33-1.7-1.69c-1.16-0.55-2.39-0.92-3.66-1.14c-0.79-0.14-1.58,0.05-2.35,0.23c-0.77,0.18-1.53,0.39-2.29,0.6
		c-1.62,0.44-2.99-0.03-4.2-1.09c-0.2-0.17-0.39-0.35-0.56-0.55c-1.28-1.6-2.87-2.85-4.62-3.91c-0.62-0.37-1.21-0.79-1.69-1.33
		c-1.34-1.48-1.26-3.43,0.23-4.75c0.51-0.45,1.08-0.86,1.63-1.26c1.12-0.82,1.83-1.9,1.9-3.27c0.1-2.11,1.21-3.42,3.13-4.18
		c1.86-0.74,3.16-2.07,4.11-3.76c0.37-0.65,0.72-1.31,1.08-1.96c0.28-0.51,0.55-1.04,0.85-1.54c0.91-1.52,1.4-1.57,2.55-0.26
		c0.41,0.47,0.78,0.97,1.18,1.44c0.32,0.37,0.63,0.75,0.99,1.09c0.58,0.54,0.98,0.56,1.54,0.01c0.61-0.59,1.15-1.25,1.71-1.88
		c0.46-0.51,0.9-1.04,1.5-1.4c0.8-0.49,1.2-0.42,1.75,0.33c1.05,1.46,1.91,3.03,2.7,4.63c0.29,0.58,0.62,0.76,1.26,0.81
		c4.57,0.35,8.94,1.55,13.19,3.19c7.5,2.9,14.35,6.95,20.94,11.46c7.35,5.03,14.18,10.68,20.88,16.49
		c3.68,3.19,7.34,6.43,11.38,9.19c5.65,3.87,11.61,7.17,18.1,9.47c3.65,1.29,7.43,1.95,11.33,2.06c4.2,0.13,8.01-1.01,11.51-3.23
		c5.52-3.49,9.58-8.27,12.58-13.95c1.63-3.08,2.88-6.32,4.21-9.53c1.78-4.29,3.63-8.55,5.98-12.58c3.41-5.84,7.73-10.88,13.38-14.75
		c2.33-1.59,4.71-3.11,7.44-3.98c1.07-0.34,2.17-0.57,3.3-0.45c2.79,0.29,4.86,2.5,4.9,5.33c0.06,3.86-1.61,6.94-4.64,9.33
		c-1.08,0.85-2.29,1.53-3.52,2.16c-1.7,0.87-3.39,1.75-5.12,2.53c-3.3,1.49-6.21,3.55-8.96,5.83c-2.91,2.41-4.95,5.54-6.81,8.76
		c-2.44,4.2-4.43,8.61-6.38,13.04c-0.69,1.57-1.41,3.14-2.05,4.74c-1.34,3.33-3.6,6.01-6.18,8.46c-1.88,1.78-3.94,3.34-6.1,4.78
		c-1.31,0.87-1.45,1.34-0.36,2.46c2.97,3.05,4.24,6.89,5.35,10.8c1.31,4.59,2.04,9.3,2.45,14.05c0.31,3.62,0.45,7.25,0.3,10.87
		c-0.1,2.33,0.62,4.34,1.72,6.37c1.42,2.6,3.32,4.62,5.93,6.07c2.12,1.17,3.11,3.04,3.03,5.41c-0.13,3.34,0.93,6.31,2.84,9.02
		c0.45,0.64,0.87,1.3,1.21,2c0.5,1.03,0.54,2.05,0.01,3.08c-0.75,1.45-1.05,2.99-1.03,4.6c0.02,1.52-0.01,3.05,0.15,4.56
		c0.02,0.19,0.02,0.39,0.02,0.58c-0.02,1.21-0.51,1.73-1.75,1.73c-3.85,0-6.77-1.66-8.74-4.91c-1.34-2.21-1.96-4.66-2.33-7.17
		C333.99,133.31,333.87,131.37,333.88,129.02z"/>
	<path d="M233.09,143.22c0-13.25,0-26.5,0-39.76c0-3.36,1.53-5.83,4.55-7.39c1.25-0.65,2.62-0.83,4.03-0.82c7.29,0,14.58,0,21.87,0
		c6.43,0,12.86,0.01,19.29,0c2.16,0,4.1,0.58,5.73,2.01c1.76,1.55,2.67,3.5,2.75,5.82c0.01,0.32,0,0.65,0,0.97
		c0,26.44,0,52.88,0,79.32c0,1.41,0.21,1.22-1.26,1.22c-7.52,0.01-15.04,0.01-22.56,0c-1.2,0-1.08,0.11-1.08-1.02
		c0-6.74,0-13.48,0-20.22c0-0.19-0.02-0.39,0-0.58c0.07-0.54-0.2-0.64-0.69-0.63c-2.31,0.02-4.62,0.01-6.93,0.01
		c-0.83,0-0.84,0.01-0.84,0.87c0,6.8,0,13.61,0,20.41c0,1.29,0.14,1.16-1.14,1.16c-7.49,0-14.97,0-22.46,0c-0.1,0-0.2,0-0.3,0
		c-1.04-0.02-0.96,0.11-0.96-0.94C233.09,170.18,233.09,156.7,233.09,143.22z"/>
	<path d="M124.56,136.92c0,13.06,0,26.12,0,39.18c0,1.03,0.03,2.07-0.25,3.09c-0.9,3.19-3.66,5.33-7.03,5.41
		c-0.59,0.02-1.19,0-1.78,0c-13.65,0-27.31,0-40.96,0c-0.93,0-1.85-0.03-2.75-0.27c-3.15-0.84-5.39-3.63-5.49-6.84
		c-0.01-0.29,0-0.58,0-0.87c0-26.7,0-53.4,0-80.1c0-1.27,0-1.27,1.32-1.27c7.42,0,14.84,0,22.26,0c0.23,0,0.47,0.02,0.69,0
		c0.55-0.07,0.66,0.19,0.65,0.67c-0.02,1.91-0.01,3.82-0.01,5.74c0,22.26,0,44.52,0,66.78c0,0.42-0.01,0.84,0.01,1.26
		c0.06,2.21,1.85,4.03,4.06,4.13c2.09,0.09,4.02-1.52,4.33-3.64c0.06-0.38,0.06-0.77,0.06-1.16c0.01-24.17,0.02-48.35,0.02-72.52
		c0-1.26,0-1.26,1.33-1.26c7.45,0,14.91,0,22.36,0c1.26,0,1.18-0.17,1.18,1.13C124.56,109.89,124.56,123.41,124.56,136.92z"/>
	<path d="M-0.39,139.89c0-14.48,0-28.96,0-43.45c0-1.36-0.2-1.19,1.2-1.19c16.09,0,32.18,0,48.28-0.01c0.86,0,1.72,0.03,2.56,0.22
		c3.36,0.76,5.87,3.63,6.15,7.02c0.03,0.35,0.04,0.71,0.04,1.07c0,16.75,0,33.5,0,50.25c0,3.26-1.39,5.74-4.28,7.37
		c-1.2,0.67-2.51,0.96-3.89,0.95c-3.07-0.01-6.13,0-9.2,0c-4.91,0-9.83,0-14.74,0c-0.23,0-0.46,0.01-0.69,0
		c-0.37-0.03-0.55,0.12-0.52,0.5c0.02,0.23,0,0.45,0,0.68c0,6.74,0,13.48,0,20.22c0,1.21,0.14,1.08-1.12,1.08
		c-7.58,0.01-15.17,0-22.75,0c-1.12,0-1.03,0.11-1.03-0.97c0-0.36,0-0.71,0-1.07C-0.39,168.33-0.39,154.11-0.39,139.89z"/>
	<path class="st0" d="M266.41,130.11c0,6.67,0,13.34,0,20.02c0,0.16-0.01,0.32,0,0.49c0.03,0.38-0.15,0.5-0.53,0.5
		c-1.09-0.02-2.18-0.01-3.26-0.01c-1.35,0-2.7-0.02-4.05,0.01c-0.48,0.01-0.67-0.16-0.62-0.62c0.02-0.16,0-0.32,0-0.49
		c0-13.02,0-26.04,0-39.06c0-0.42,0.01-0.84,0.05-1.26c0.23-2.19,2.13-3.83,4.31-3.74c2.31,0.1,4.07,1.8,4.09,4.05
		c0.03,3.79,0.01,7.58,0.01,11.37C266.4,124.28,266.4,127.19,266.41,130.11z"/>
	<path class="st0" d="M24.52,128.5c0-7.09,0-14.19,0-21.28c0-0.19,0-0.39,0-0.58c0.01-0.72,0.02-0.73,0.77-0.73
		c1.09-0.01,2.18-0.01,3.26,0c2.52,0.04,4.29,1.71,4.42,4.18c0.01,0.26,0.01,0.52,0.01,0.78c0,11.79,0,23.58,0,35.37
		c0,0.29,0.01,0.58-0.01,0.87c-0.15,2.2-1.78,3.83-4.01,3.94c-1.32,0.07-2.64,0.02-3.96,0.03c-0.38,0-0.54-0.15-0.5-0.52
		c0.02-0.22,0-0.45,0-0.68C24.52,142.75,24.52,135.62,24.52,128.5z"/>
</g>
</svg>
