<?xml version="1.0" encoding="utf-8"?>
<!-- Generator: Adobe Illustrator 26.3.1, SVG Export Plug-In . SVG Version: 6.00 Build 0)  -->
<svg version="1.1" id="Capa_1" xmlns="http://www.w3.org/2000/svg" xmlns:xlink="http://www.w3.org/1999/xlink" x="0px" y="0px"
	 viewBox="0 0 304.17 233.19" style="enable-background:new 0 0 304.17 233.19;" xml:space="preserve">
<style type="text/css">
	.st0{fill:#46E549;}
</style>
<g>
	<path d="M155.92,109.01c-3.87,12.76-10.81,23.61-18.78,33.9c-2.37,3.06-5.47,4.23-9.1,4.27c-5,0.05-10,0.04-14.99-0.15
		c-3.89-0.15-6.74-2.25-8.99-5.36c-9.23-12.76-17.24-26.22-23.28-40.81c-0.46-1.11-0.47-2.8-1.87-2.99
		c-1.66-0.22-2.08,1.56-2.72,2.68c-3.23,5.64-8.19,9.69-12.79,14.07c-3.34,3.19-6.66,6.4-10.01,9.59
		c-3.94,3.75-5.22,8.19-4.16,13.58c1.11,5.65-0.53,7.78-6.14,7.25c-7.77-0.73-15.39-0.62-23.06,0.9c-4.34,0.86-8.71-0.19-12.96-1.26
		c-3.38-0.86-3.58-1.55-1.45-4.61c-0.5-0.12-0.93-0.23-1.35-0.33c-1.36-0.33-2.97-0.75-2.91-2.37c0.05-1.36,1.62-1.69,2.81-2.06
		c16.67-5.12,29.99-15.1,40.62-28.67c4.68-5.97,8.28-12.73,11.9-19.42c0.89-1.64,1.62-3.44,2.81-4.85
		c2.95-3.51,3.42-7.04,1.28-11.18c-1.1-2.13-1.05-4.65,0.27-6.85c0.81-1.35,1.31-3.61,3.76-1.98c4.34-3.72,9.29-0.48,13.89-1.25
		c1.1-0.18,2.18-0.54,3.26-0.85c5-1.44,8.9-3.69,10.16-9.52c0.93-4.32,3.44-8.27,4.33-12.69c0.66-3.3,1.04-6.55-2.13-9.05
		c-1.54-1.21-0.26-2.45,0.64-3.04c3.71-2.41,3.19-6.56,4.39-9.99c0.08-0.23,0.18-0.59,0.07-0.72c-3.31-3.89-0.64-6.53,2.18-8.66
		c2.63-1.98,4.41-5.18,8.69-5.03c2.88,0.1,5.9,0.15,8.98-0.81c5.02-1.56,14.11,5.52,14.52,10.83c0.45,5.92,0.65,11.87,0.71,17.8
		c0.04,3.8,1.77,8.79,1.61,11.44c-0.4,6.32,5.58,8.2,7.64,12.76c3.1,6.87,7.35,13.21,10.35,21.28c2.52-8.5,6.71-15.09,11.47-21.36
		c0.5-0.66,0.52-1.45,0.2-2.13c-0.71-1.52-0.89-2.83,0.84-3.81c0.54-0.31,1.03-0.88,0.53-1.53c-1.55-2.02-1.1-3.21,1.06-4.63
		c1.48-0.98,0.16-2.68-0.46-4.03c-2.56-5.55-4.78-11.08-3.35-17.51c0.84-3.8,2.71-6.89,4.91-9.9c0.29-0.39,0.74-0.97,1.11-0.96
		c4.74,0.14,8.92-2.71,13.65-2.55c0.73,0.02,1.47,0.19,2.18,0.12c3.9-0.39,6.86,1.7,8.3,5.28c1.76,4.35,2.91,9.22,7.72,11.58
		c0.89,0.44,0.92,1.1,0.49,1.84c-1.29,2.19-0.03,4.34,0.41,6.34c0.53,2.39,2.41,4.3,0.62,7.15c-0.8,1.28,0.78,3.23,1.63,4.75
		c3.9,6.95,7.82,13.89,11.71,20.85c0.73,1.3,1.46,2.63,1.95,4.04c2.13,6.15,6.3,7.93,12.11,5.06c1.94-0.96,3.92-1.6,6.12-1.31
		c1.14,0.15,2.24,0.1,3.09-0.86c0.72-0.81,0.81-2.75,2.63-1.7c1.53,0.88,2.88,1.95,2.89,4.03c0.01,2.91-0.67,5.7-1.47,8.45
		c-0.34,1.18-0.44,2.07,0.35,3.1c9.7,12.68,17.42,26.76,27.75,39.01c2.04,2.42,4.25,4.7,7.12,5.96c4.99,2.19,9.09,5.66,13.45,8.75
		c2.86,2.03,5.77,3.95,9.36,4.4c1.07,0.14,2.04,0.49,2.1,1.69c0.05,1.05-0.95,1.35-1.75,1.68c-2.35,0.97-4.83,1.16-7.34,1.22
		c-9.38,0.22-18.6-2.08-28.01-1.59c-2.32,0.12-5.18-1.28-4.61-3.83c2.24-10-4.93-14.67-11.09-19.23
		c-8.18-6.05-15.11-12.89-19.89-22.61c-3.88,6.34-7.48,12.2-11.06,18.08c-4.55,7.48-9.76,14.45-15.42,21.14
		c-4.48,5.29-9.99,8.19-16.9,8.29c-4.99,0.07-10,0.07-14.99-0.15c-4.68-0.2-8-2.78-8.83-8.17c-1.41-9.18-4.66-17.8-7.01-26.7
		C157.3,111.76,157.28,110.18,155.92,109.01z"/>
	<path d="M60.58,222.09c-7.16,0-13.53-0.09-19.89,0.05c-1.98,0.05-3.2-0.55-4.35-2.13c-3.22-4.44-6.54-8.82-9.97-13.1
		c-0.79-0.99-1.23-3.42-3.02-2.37c-1.64,0.96-3.86,1.95-3.76,4.66c0.12,3.37-0.08,6.75,0.08,10.11c0.1,2.04-0.39,2.91-2.63,2.83
		c-4.62-0.16-9.24-0.1-13.86-0.02c-1.78,0.03-2.66-0.25-2.64-2.42c0.11-13.61,0.08-27.21,0.02-40.82c-0.01-1.83,0.32-2.73,2.43-2.67
		c4.74,0.13,9.49,0.13,14.23,0c2.08-0.06,2.5,0.79,2.44,2.65c-0.12,3.82-0.04,7.65-0.04,12.1c5.17-4.59,9.92-8.73,14.57-12.98
		c1.27-1.16,2.49-1.8,4.28-1.77c6.35,0.11,12.7,0.04,19.85,0.04c-6.42,5.27-12.25,10.23-18.28,14.9c-2.24,1.74-2.61,2.73-0.6,5.07
		c6.58,7.67,12.86,15.59,19.26,23.42C59.22,220.29,59.71,220.96,60.58,222.09z"/>
	<path d="M146.44,191.05c8.67-5.85,20.37-6.14,28.12-0.89c6.28,4.25,8.85,10.36,7.77,17.81c-1.05,7.29-5.42,11.96-12.47,13.82
		c-7.73,2.04-15.29,1.88-22.6-3.43c0,4.43-0.11,8.46,0.05,12.48c0.08,2.02-0.58,2.57-2.52,2.51c-4.74-0.12-9.49-0.12-14.23,0
		c-1.94,0.05-2.58-0.53-2.57-2.52c0.08-13.73,0.08-27.45,0.01-41.18c-0.01-1.82,0.54-2.4,2.32-2.36c4.37,0.1,8.75,0.2,13.1-0.02
		C146.07,187.15,147.09,188.03,146.44,191.05z"/>
	<path d="M210.02,218.39c0,4.38-0.05,8.32,0.02,12.27c0.03,1.74-0.18,2.78-2.39,2.71c-4.87-0.16-9.75-0.12-14.62-0.01
		c-1.86,0.04-2.28-0.63-2.27-2.39c0.07-13.74,0.09-27.48-0.01-41.22c-0.01-2.1,0.75-2.49,2.6-2.45c4.25,0.1,8.5,0.16,12.74-0.03
		c2.51-0.11,3.86,0.49,3.12,3.63c7.99-5.43,16.18-5.68,24.5-2.58c7.88,2.94,12.41,10.61,11.51,18.63
		c-0.94,8.39-6.2,13.82-14.91,15.38C223.22,223.61,216.44,223.16,210.02,218.39z"/>
	<path d="M120.13,222.11c-6.27,0-11.86-0.11-17.45,0.05c-2.31,0.07-2.65-1.29-2.72-3.19c-7.6,4.36-15.45,4.6-23.49,3.26
		c-2.11-0.35-4.09-1.11-5.92-2.21c-6.32-3.8-6.25-11.48,0.19-15.03c4.94-2.72,10.48-3.02,15.93-3.65c3.22-0.37,6.46-0.61,9.67-1.11
		c1.45-0.23,3.08-0.78,3.09-2.7c0.01-1.87-1.54-2.65-3-2.81c-3.64-0.41-7.53-1.46-10.21,2.41c-0.49,0.7-1.26,0.7-2.02,0.7
		c-4.62,0-9.24-0.07-13.86,0.03c-2.31,0.05-2.11-1.19-1.58-2.62c1.06-2.88,3.3-4.63,5.98-5.86c3.92-1.79,8.12-2.3,12.37-2.63
		c7.13-0.56,14.24-0.49,21.24,1.04c7.26,1.59,9.57,4.6,9.6,12c0.01,3.74-0.04,7.49,0.01,11.23
		C118.01,214.69,117.38,218.48,120.13,222.11z"/>
	<path d="M284.27,219.2c-8.43,4.46-17.2,4.84-26.13,2.18c-4.9-1.46-7.44-4.64-7.55-8.64c-0.11-4.18,2.09-6.97,7.19-8.86
		c6.53-2.42,13.48-2.3,20.25-3.25c2.36-0.33,5.95,0.11,5.87-3.13c-0.08-3.4-3.67-3.06-6.22-3.11c-2.61-0.05-5.33-0.08-6.86,2.74
		c-0.15,0.28-0.58,0.56-0.89,0.57c-5.36,0.06-10.72,0.14-16.08,0.04c-1.3-0.02-0.91-1.26-0.64-2.05c0.69-2.06,1.91-3.74,3.75-4.97
		c2.1-1.4,4.4-2.4,6.85-2.87c9.65-1.87,19.35-2.06,29-0.09c7.31,1.49,9.64,4.54,9.69,11.88c0.03,4.36,0.05,8.73-0.01,13.09
		c-0.04,3.13,0.05,6.21,2.16,9.37c-6.27,0-12.06-0.08-17.85,0.04C284.53,222.2,284.98,220.27,284.27,219.2z"/>
	<path class="st0" d="M120.33,89.99c-1.8,5.18-0.27,10.42-1.55,15.4c-0.24,0.91-0.18,2.16-1.46,2.27c-1.01,0.08-1.35-0.95-1.79-1.68
		c-4.93-8.04-9.84-16.1-14.8-24.12c-0.84-1.35-1.26-2.21,0.66-3.12c4.16-1.96,8.18-4.19,12.26-6.3c0.94-0.49,2.21-1.44,2.45,0.51
		C116.84,78.86,117.42,84.8,120.33,89.99z"/>
	<path class="st0" d="M194.65,78.06c5.97,2.2,11.41,4.26,16.89,6.21c1.84,0.65,2.12,1.42,0.72,2.82
		c-6.61,6.59-13.19,13.2-19.82,19.77c-0.76,0.76-1.72,1.74-2.91,1.2c-1.18-0.54-1.03-1.86-1.04-2.98
		c-0.06-5.01,0.13-9.68,6.26-11.57c3.38-1.04,4.46-3.62,2.51-7.05C195.91,84.08,195.35,81.4,194.65,78.06z"/>
	<path class="st0" d="M205.79,63.78c-6.03-2.73-10.35-6.01-14.55-9.45c-1.16-0.95,1.04-7.23,2.85-8.52c2.6-1.83,3.55,0.34,4.55,2
		C201.51,52.55,203.47,57.69,205.79,63.78z"/>
	<path class="st0" d="M103.06,50.68c-0.21-3.1,1.06-5.3,1.79-7.62c0.33-1.05,1.37-1,2.23-0.74c1.81,0.55,2.83,1.99,3.56,3.6
		c0.37,0.82-0.26,1.41-0.97,1.74C107.58,48.64,105.47,49.58,103.06,50.68z"/>
	<path class="st0" d="M163.4,204.85c-0.05,5.6-3.08,8.55-8.65,8.44c-5.33-0.1-8.19-3.09-8.18-8.55c0-5.64,2.97-8.66,8.47-8.64
		C160.5,196.11,163.45,199.21,163.4,204.85z"/>
	<path class="st0" d="M226.13,204.92c-0.05,5.54-3.12,8.49-8.71,8.38c-5.36-0.11-8.07-2.99-8.05-8.6c0.01-5.68,2.94-8.66,8.46-8.6
		C223.29,196.15,226.18,199.22,226.13,204.92z"/>
	<path class="st0" d="M91.17,215.1c-0.45-0.07-1.33-0.1-2.16-0.34c-1.57-0.44-3.29-0.98-3.41-2.91c-0.13-2.05,1.59-2.67,3.18-3.03
		c3.02-0.7,6.11-1.1,9.1-1.9c1.66-0.44,1.55,0.37,1.63,1.44C99.83,212.47,96.74,215.12,91.17,215.1z"/>
	<path class="st0" d="M275.98,215.1c-0.14-0.01-0.64,0-1.13-0.09c-1.97-0.36-4.33-0.66-4.6-3.01c-0.3-2.62,2.16-2.98,4.07-3.42
		c2.29-0.53,4.73-0.59,6.91-1.38c2.93-1.07,3.14,0.35,2.88,2.53C283.72,213.06,280.81,215.05,275.98,215.1z"/>
</g>
</svg>
