<?xml version="1.0" encoding="utf-8"?>
<!-- Generator: Adobe Illustrator 26.3.1, SVG Export Plug-In . SVG Version: 6.00 Build 0)  -->
<svg version="1.1" id="Capa_1" xmlns="http://www.w3.org/2000/svg" xmlns:xlink="http://www.w3.org/1999/xlink" x="0px" y="0px"
	 viewBox="0 0 173.79 129.87" style="enable-background:new 0 0 173.79 129.87;" xml:space="preserve">
<style type="text/css">
	.st0{fill:#231F20;}
	.st1{fill:#242021;}
	.st2{fill:#B5B5B5;}
	.st3{fill:#C0BFC0;}
	.st4{fill:#949293;}
	.st5{fill:#878586;}
	.st6{fill:#838182;}
	.st7{fill:#9A9999;}
	.st8{fill:#797677;}
	.st9{fill:#A5A2A3;}
	.st10{fill:#B1AFB0;}
	.st11{fill:#888586;}
	.st12{fill:#858384;}
	.st13{fill:#949292;}
	.st14{fill:#959394;}
	.st15{fill:#989696;}
	.st16{fill:#8F8D8E;}
	.st17{fill:#9A999A;}
	.st18{fill:#7F7D7E;}
	.st19{fill:#888787;}
	.st20{fill:#9A9798;}
	.st21{fill:#9B9899;}
	.st22{fill:#999697;}
	.st23{fill:#888788;}
	.st24{fill:#ADACAC;}
	.st25{fill:#7D7C7C;}
	.st26{fill:#8B8A8A;}
	.st27{fill:#8F8C8D;}
	.st28{fill:#8D8B8C;}
	.st29{fill:#949192;}
	.st30{fill:#9D9A9B;}
	.st31{fill:#868586;}
	.st32{fill:#939292;}
	.st33{fill:#989596;}
	.st34{fill:#46E549;}
	.st35{fill:#9F9E9E;}
	.st36{fill:#969394;}
	.st37{fill:#8B898A;}
	.st38{fill:#9B9A9A;}
	.st39{fill:#898888;}
	.st40{fill:#979596;}
	.st41{fill:#A09E9F;}
	.st42{fill:#A2A0A1;}
	.st43{fill:#747273;}
	.st44{fill:#9A9899;}
	.st45{fill:#666263;}
	.st46{fill:#A2A2A2;}
</style>
<g>
	<path class="st0" d="M147.62,83.07c0.15,0.43,0.3,0.86,0.62,1.2c0.17,0.18,0.27,0.44,0.17,0.71c-0.11,0.28-0.36,0.16-0.55,0.16
		c-2.11,0.01-4.22,0-6.32,0c-8.74,0-17.49-0.01-26.23,0.01c-0.66,0-0.99-0.21-1.34-0.91c-2.2-4.37-4.48-8.69-6.73-13.03
		c-0.3-0.57-0.58-1.16-0.87-1.74c-0.49-0.7-0.72-1.57-1.25-2.24c-1.92-3.74-3.84-7.47-5.76-11.21c-3.12-6.07-6.25-12.15-9.38-18.22
		c-1.4-2.72-2.82-5.42-4.24-8.13c-0.36-0.69-0.72-1.39-1.06-2.09c-0.32-0.62-0.64-1.25-0.96-1.87c-0.52-0.83-0.86-1.78-1.38-2.61
		c-1.07-2.07-2.14-4.14-3.21-6.2c-0.28-0.54-0.09-0.9,0.34-1.18c0.54-0.35,1.08-0.7,1.61-1.05c0.7-0.36,1.31-0.89,2.01-1.23
		c1.8-1.18,3.59-2.38,5.4-3.55c1.74-1.12,3.49-2.22,5.24-3.33c0.79-0.5,1.6-0.96,2.36-1.53c1.98-1.21,3.85-2.62,5.88-3.73
		c0.08-0.05,0.14-0.16,0.21-0.24c0.63-0.4,1.29-0.73,1.88-1.2l0,0c0.38-0.29,0.42,0.19,0.61,0.32l0,0c0.22,0.54,0.6,0.98,0.79,1.54
		c1.85,3.56,3.71,7.12,5.56,10.69c1.22,2.36,2.42,4.73,3.63,7.09c0.52,0.88,0.94,1.83,1.43,2.73c1.08,2.07,2.18,4.13,3.25,6.2
		c0.96,1.86,1.91,3.73,2.86,5.6c0.82,1.59,1.64,3.18,2.45,4.77c0.27,0.51,0.58,0.99,0.81,1.52l0,0c0.25,0.38,0.4,0.82,0.62,1.21
		c1.2,2.3,2.4,4.59,3.6,6.89c0.36,0.75,0.8,1.45,1.11,2.23c1.2,2.28,2.39,4.56,3.59,6.84c0.1,0.19,0.21,0.38,0.32,0.57
		c0.41,0.66,0.68,1.41,1.06,2.09c2.32,4.47,4.63,8.95,6.95,13.41c1.43,2.76,2.88,5.51,4.32,8.27
		C147.24,82.24,147.35,82.7,147.62,83.07z"/>
	<path class="st0" d="M76.07,31.56c1.19,2.31,2.38,4.61,3.57,6.92c0.3,0.49,0.57,0.99,0.81,1.52c3.63,6.98,7.26,13.95,10.89,20.93
		c0.24,0.47,0.46,0.96,0.69,1.44c0.55,0.81,0.84,1.79,1.38,2.61c0.55,0.96,0.91,2.04,1.54,2.95c0.19,0.55,0.57,0.99,0.77,1.54
		c1.82,3.52,3.63,7.04,5.46,10.55c0.81,1.55,1.65,3.07,2.46,4.61c0.07,0.14,0.04,0.34,0.06,0.51l0.02-0.02
		c-8.41,0-16.81,0.01-25.22,0.01c-1.93,0-1.74-0.15-1.73,1.87c0,1.46-0.01,2.93,0,4.39c0,0.34-0.01,0.67,0.09,1.01
		c0.13,0.47-0.05,0.85-0.57,0.85c-2.06,0.01-4.11-0.01-6.17,0c-0.57,0-0.52-0.42-0.53-0.82c0-1.72-0.09-3.45,0.03-5.16
		c0.11-1.56-0.36-2.84-1.03-4.13c-2.42-4.62-4.82-9.26-7.22-13.89c-2.38-4.59-4.75-9.18-7.13-13.77c-1.48-2.86-2.98-5.72-4.48-8.56
		c-0.32-0.6-0.16-0.95,0.35-1.28c2.93-1.85,5.84-3.73,8.77-5.59c2.82-1.79,5.65-3.56,8.47-5.35c1.81-1.16,3.62-2.34,5.42-3.51
		c0.64-0.37,1.28-0.74,1.9-1.17l0,0c0.38-0.34,0.57,0.01,0.74,0.28C75.67,30.7,75.85,31.14,76.07,31.56z"/>
	<path class="st0" d="M103.71,85.14c2.21-0.01,4.42-0.01,6.63-0.03c0.53-0.01,0.72,0.18,0.72,0.8c-0.02,14.12-0.02,28.23-0.01,42.35
		c0,0.69-0.2,0.97-0.86,0.96c-1.85-0.04-3.7-0.04-5.54,0c-0.68,0.01-0.97-0.26-0.9-1c0.02-0.17,0.02-0.34,0.01-0.52
		c-0.01-0.43-0.05-0.63-0.52-0.3c-2.25,1.57-4.76,2.32-7.4,2.53c-2.72,0.22-5.33-0.46-7.69-1.86c-4.16-2.47-6.9-6.28-7.97-11.4
		c-0.8-3.83-0.42-7.51,1.1-11.11c1.46-3.45,3.73-6.04,6.74-7.74c2.79-1.58,5.79-2.28,8.99-1.76c2.22,0.36,4.28,1.05,6.17,2.36
		c0.56,0.39,0.58,0.08,0.58-0.4c-0.01-4.3-0.02-8.61-0.03-12.91C103.73,85.12,103.71,85.14,103.71,85.14z"/>
	<path class="st0" d="M58.08,127.47c-0.66,0.36-1.32,0.72-1.99,1.08c-1.4,0.71-2.89,1.05-4.39,1.29c-1.17,0.18-2.38,0.18-3.57-0.06
		c-1.17-0.23-2.33-0.5-3.47-0.89c-5.28-2.51-8.66-6.75-9.74-13.06c-0.91-5.31,0.47-9.99,3.44-14.14c0.74-1.03,1.74-1.82,2.71-2.61
		c0.26-0.31,0.66-0.39,0.91-0.71c5.37-3.26,10.73-3.34,16.09,0.03c0.31,0.16,0.44-0.01,0.47-0.32c0.03-0.26,0.01-0.52,0.01-0.77
		c0-3.7,0-7.4,0-11.1c0-1.1,0.13-1.24,1.13-1.25c1.8-0.01,3.59-0.01,5.39,0c0.81,0,0.9,0.11,0.9,0.99c0,14.09,0,28.18,0,42.26
		c0,0.97-0.11,1.04-0.99,1.03c-1.77-0.03-3.54,0-5.31-0.01c-0.96-0.01-1.04-0.1-1.12-1.17C58.55,127.71,58.6,127.29,58.08,127.47z"
		/>
	<path class="st0" d="M114.05,117.67c0-0.05-0.01-0.1-0.02-0.16c-0.26-0.3-0.03-0.76-0.28-1.06c-0.01-0.11-0.02-0.21-0.02-0.32
		c-0.27-1.5-0.29-3.01-0.18-4.52c0.05-0.73-0.14-1.5,0.19-2.2l0,0c0.33-0.4-0.03-0.98,0.31-1.38c1.39-4.73,3.99-8.32,8.15-10.42
		c0.11-0.06,0.19-0.18,0.29-0.27c0.52-0.24,1.05-0.47,1.58-0.67c1.83-0.44,3.64-0.96,5.54-0.75c2.47,0.27,4.84,0.84,6.95,2.39
		c0.65,0.48,0.77,0.4,0.78-0.45c0.03-1.65,0.03-1.65,1.57-1.65c1.64,0,3.28,0.02,4.92-0.01c0.6-0.01,0.87,0.13,0.87,0.9
		c-0.02,10.36-0.02,20.72,0,31.08c0,0.81-0.25,1.03-0.95,1.02c-1.8-0.04-3.59-0.01-5.39-0.01c-1.01,0-1.01,0-1.02-1.08
		c0-0.3,0.13-0.71-0.15-0.85c-0.16-0.08-0.47,0.14-0.69,0.28c-4.35,2.79-8.84,3.2-13.52,1.08c-3.93-1.78-6.59-4.95-8.35-9.13
		c-0.11-0.25-0.18-0.51-0.27-0.77C114.07,118.43,114.32,117.96,114.05,117.67z"/>
	<path class="st0" d="M8.4,98.36c1.1-0.88,2.37-1.35,3.64-1.77c2.3-0.76,4.65-0.9,7.02-0.37c1.79,0.4,3.52,0.99,5.07,2.12
		c0.15,0.11,0.32,0.41,0.61,0.25c0.32-0.18,0.21-0.49,0.21-0.76c-0.04-1.83-0.09-1.59,1.47-1.6c1.61-0.01,3.23,0.03,4.84-0.02
		c0.68-0.02,0.82,0.23,0.82,0.93c-0.02,10.08-0.01,20.15-0.01,30.23c0,1.84,0,1.84-1.69,1.84c-1.51,0-3.02-0.03-4.53,0.01
		c-0.68,0.02-0.98-0.24-0.89-1c0.02-0.17,0.01-0.34,0.01-0.52c-0.01-0.47-0.14-0.64-0.56-0.33c-2.34,1.71-4.99,2.43-7.74,2.6
		c-2.3,0.14-4.54-0.44-6.64-1.5c-2.44-1.23-4.47-3.05-6.06-5.45c-0.98-1.48-1.8-3.04-2.26-4.81c-0.28-0.29-0.03-0.76-0.3-1.05
		c-0.44-1.98-0.57-3.98-0.39-6.02c0.42-4.75,2.37-8.55,5.69-11.55C7.24,99.13,7.83,98.76,8.4,98.36z"/>
	<path class="st0" d="M19.82,75.3c2.04-1.32,4.08-2.63,6.12-3.95c0.82-0.53,1.64-1.05,2.46-1.58c0.8-0.48,1.59-0.99,2.37-1.52
		c4.57-2.93,9.14-5.85,13.69-8.81c0.54-0.35,0.79-0.39,1.07,0.28c0.34,0.8,0.78,1.54,1.18,2.31c0.51,0.84,0.87,1.77,1.38,2.61
		c2.77,5.34,5.53,10.68,8.31,16.02c0.66,1.27,1.34,2.52,2.02,3.77c0.24,0.49,0.15,0.76-0.39,0.77c-0.16,0-0.31,0-0.47,0
		c-10.64,0-21.28,0-31.91,0c-0.47,0-0.95,0.07-1.28-0.42c-1.22-2.33-2.28-4.76-3.69-6.97c-0.11-0.17-0.15-0.41-0.22-0.61
		c-0.08-0.37-0.29-0.67-0.48-0.96C19.76,75.94,19.68,75.65,19.82,75.3z"/>
	<path class="st0" d="M155.76,120.95c0.65,1.3,1.64,2.1,2.95,2.43c1.57,0.36,3.15,0.6,4.72,0l0,0c0.25-0.27,0.62-0.19,0.9-0.39
		c0.83-0.59,1.57-1.29,1.73-2.43c0.19-1.28-0.33-2.19-1.46-2.74c-0.63-0.31-1.28-0.54-1.96-0.68c-0.48-0.39-1.1,0.05-1.58-0.32
		c-3.11-0.43-6.21-0.94-9.03-2.59c-1.35-0.79-2.31-2.04-2.98-3.55c-0.11-0.25-0.22-0.5-0.33-0.75c-0.68-1.98-0.75-3.99-0.29-6.03
		l0,0c0.24-0.3,0.1-0.73,0.31-1.04c0.86-2.18,2.25-3.82,4.11-4.98c1.32-0.82,2.75-1.36,4.25-1.66c2.67-0.53,5.34-0.46,7.93,0.41
		c2.91,0.97,5.4,2.6,6.73,5.82c0.06,0.13,0.21,0.24,0.24,0.41c0.35,0.92,0.64,1.86,0.76,2.86c0.07,0.6-0.06,0.93-0.68,0.93
		c-1.97-0.01-3.95-0.01-5.92,0c-0.53,0-0.74-0.26-0.81-0.8c-0.09-0.71-0.24-1.41-0.68-1.98c-0.43-0.79-1.2-1.02-1.89-1.37
		c-1.85-0.4-3.69-0.46-5.49,0.32c-0.86,0.37-1.43,1.01-1.58,2.05c-0.17,1.16,0.45,2.05,1.8,2.68c1.44,0.67,3.01,0.88,4.55,1.18
		c3.11,0.6,6.26,1.06,8.9,3.24c2.06,1.71,3.09,3.97,3.07,6.83c-0.03,3.79-1.37,6.79-4.33,8.82c-0.76,0.52-1.55,0.97-2.42,1.23
		c-2.71,1.05-5.52,1.23-8.34,1.02c-1.45-0.11-2.9-0.46-4.3-0.98c-2.15-0.93-4.04-2.26-5.4-4.38c-0.17-0.27-0.22-0.65-0.52-0.81
		c-0.29-0.42-0.42-0.93-0.61-1.4l0,0.01c-0.33-0.98-0.67-1.96-0.65-3.04c0.01-0.5,0.18-0.74,0.64-0.73
		c2.09,0.05,4.19-0.13,6.28-0.07c0.54,0.02,0.92,0.2,0.92,0.96C155.31,119.96,155.6,120.44,155.76,120.95z"/>
	<path class="st1" d="M69.61,112.69c0-5.16,0.02-10.33-0.02-15.49c-0.01-0.82,0.24-1.01,0.94-0.99c1.77,0.05,3.54,0.02,5.31,0.02
		c1.04,0,1.1,0.06,1.1,1.21c0,6.25,0,12.51,0,18.76c0,3.87,0,7.74,0,11.62c0,1.33-0.07,1.4-1.27,1.4c-1.72,0-3.44-0.04-5.15,0.02
		c-0.75,0.03-0.92-0.28-0.92-1.04C69.62,123.01,69.61,117.85,69.61,112.69z"/>
	<path class="st2" d="M24.36,84.79c0.42,0.25,0.87,0.29,1.35,0.29c10.67-0.01,21.33-0.01,32,0c0.43,0,0.8,0.03,0.71-0.64
		c0.42,0.41,0.93,0.36,1.44,0.36c1.72-0.01,3.44,0,5.15,0c1.1,0,1.11,0.02,1.11,1.27c0,7.17,0,14.35,0,21.52c0,6.89,0,13.77,0,20.66
		c0,1.14-0.01,1.14-1.03,1.14c-1.85,0-3.7,0-5.54,0c-1.07,0-1.11-0.04-1.13-1.19c0-0.31,0.07-0.66-0.35-0.72
		c0.03-0.33,0.26-0.33,0.46-0.31c0.26,0.03,0.2,0.29,0.22,0.47c0.13,1.43,0.13,1.42,1.48,1.43c1.69,0.01,3.38,0.03,5.07,0.06
		c0.39,0.01,0.58-0.19,0.62-0.59c0.02-0.17,0.01-0.34,0.01-0.52c0-13.99,0-27.99,0.02-41.98c0-0.7-0.22-0.88-0.82-0.87
		c-1.82,0.04-3.64,0.04-5.46,0c-0.68-0.02-0.94,0.15-0.93,0.99c0.05,3.93,0.03,7.86,0.02,11.79c0,0.26,0.11,0.62-0.2,0.76
		c-0.19,0.08-0.42,0.03-0.46-0.29c0.35-0.08,0.33-0.38,0.33-0.67c0-3.93,0-7.86,0.01-11.8c0-0.48-0.13-0.7-0.58-0.65
		c-0.21,0.02-0.42,0-0.62,0c-10.65,0-21.29,0-31.94-0.01C24.95,85.28,24.38,85.59,24.36,84.79z"/>
	<path class="st3" d="M155.76,120.95c-0.46-0.43-0.5-1.06-0.6-1.63c-0.08-0.49-0.25-0.67-0.71-0.66c-2.08,0.03-4.16,0.03-6.24,0.01
		c-0.5-0.01-0.59,0.21-0.6,0.71c-0.01,1.02,0.47,1.93,0.5,2.94c-0.72-1.02-0.84-2.21-0.79-3.44c0.02-0.43,0.37-0.51,0.7-0.52
		c2.13-0.05,4.25-0.11,6.38-0.12c0.62,0,1.12,0.3,1.05,1.15C155.41,119.94,155.92,120.37,155.76,120.95z"/>
	<path class="st4" d="M164.68,103.88c0.62,0.39,0.69,1.1,0.76,1.76c0.07,0.68,0.3,0.91,0.94,0.89c1.84-0.06,3.69-0.06,5.53,0
		c0.72,0.02,0.84-0.28,0.74-0.95c-0.14-0.93-0.59-1.76-0.65-2.71c0.77,0.96,0.73,2.23,1,3.37c0.09,0.37-0.24,0.61-0.6,0.61
		c-2.16,0.01-4.32,0-6.48,0.01c-0.34,0-0.58-0.19-0.61-0.53C165.24,105.46,164.91,104.69,164.68,103.88z"/>
	<path class="st5" d="M154.65,128.89c0.65-0.21,1.21,0.23,1.8,0.37c3.18,0.75,6.34,0.57,9.5-0.09c0.45-0.09,0.85-0.42,1.34-0.32
		c-0.55,0.62-1.33,0.6-2.01,0.77c-2.21,0.54-4.48,0.67-6.71,0.37C157.25,129.81,155.86,129.67,154.65,128.89z"/>
	<path class="st6" d="M44.66,128.89c0.7-0.21,1.3,0.27,1.94,0.42c3.06,0.73,6.04,0.56,8.96-0.72c0.16-0.07,0.35-0.03,0.53-0.04
		c-0.79,0.7-1.79,0.86-2.72,1.12c-1.42,0.4-2.91,0.56-4.38,0.38C47.51,129.88,46.02,129.66,44.66,128.89z"/>
	<path class="st7" d="M113.73,109.42c0,2.24-0.01,4.48-0.01,6.72c-0.54-0.48-0.25-1.16-0.36-1.75c-0.27-1.5,0.02-3,0.08-4.5
		C113.45,109.67,113.55,109.51,113.73,109.42z"/>
	<path class="st8" d="M157.3,102.84c0.24-0.62,0.79-0.42,1.2-0.53c1.21-0.33,2.44-0.35,3.68-0.11c0.23,0.04,0.45,0.12,0.61,0.32
		c-1,0.06-2-0.14-3-0.06C158.95,102.52,158.11,102.57,157.3,102.84z"/>
	<path class="st9" d="M148.42,103.91c-0.16,2.02-0.2,4.04,0.29,6.03c-0.61-0.75-0.64-1.72-0.71-2.63
		C147.92,106.16,147.86,104.98,148.42,103.91z"/>
	<path class="st10" d="M163.43,123.39c-0.24,0.45-0.68,0.38-1.04,0.41c-1.25,0.11-2.51,0.26-3.68-0.41
		c0.02-0.01,0.05-0.02,0.07-0.02C160.33,123.5,161.88,123.69,163.43,123.39z"/>
	<path class="st11" d="M116.07,22.25c-0.64-0.8-1.12-1.71-1.43-2.73C115.34,20.29,115.8,21.21,116.07,22.25z"/>
	<path class="st12" d="M96.09,5.04c-0.67,0.72-1.46,1.23-2.36,1.53C94.42,5.88,95.21,5.38,96.09,5.04z"/>
	<path class="st13" d="M82.34,23.1c0.63,0.76,1.09,1.63,1.38,2.61C83.05,24.97,82.63,24.08,82.34,23.1z"/>
	<path class="st14" d="M48.09,64.65c-0.61-0.77-1.08-1.64-1.38-2.61C47.38,62.77,47.81,63.66,48.09,64.65z"/>
	<path class="st15" d="M93.41,64.98c-0.66-0.74-1.05-1.66-1.38-2.61C92.74,63.08,93.1,64.01,93.41,64.98z"/>
	<path class="st16" d="M30.77,68.25c-0.66,0.75-1.48,1.19-2.37,1.52C29.1,69.08,29.87,68.55,30.77,68.25z"/>
	<path class="st17" d="M76.07,31.56c-0.43-0.19-0.47-0.69-0.67-1.05c-0.18-0.33-0.38-0.5-0.72-0.49c0.06-0.46,0.4-0.43,0.55-0.22
		C75.62,30.31,76.06,30.82,76.07,31.56z"/>
	<path class="st18" d="M130.77,50.66c-0.47-0.68-0.99-1.33-1.11-2.23C130.21,49.07,130.65,49.77,130.77,50.66z"/>
	<path class="st19" d="M105.12,67.23c0.68,0.57,0.95,1.41,1.25,2.24C105.68,68.9,105.45,68.03,105.12,67.23z"/>
	<path class="st17" d="M74.68,30.02c-0.53,0.6-1.14,1.03-1.9,1.17C73.34,30.66,73.94,30.19,74.68,30.02z"/>
	<path class="st20" d="M135.74,60.16c-0.51-0.6-0.85-1.31-1.06-2.09C135.19,58.67,135.64,59.31,135.74,60.16z"/>
	<path class="st4" d="M84.68,27.58c0.51,0.6,0.88,1.29,1.06,2.09C85.19,29.09,84.86,28.38,84.68,27.58z"/>
	<path class="st21" d="M104.06-0.12c-0.52,0.61-1.13,1.03-1.88,1.2C102.71,0.5,103.34,0.11,104.06-0.12z"/>
	<path class="st22" d="M83.09,13.45c-0.62,0.5-1.22,1.06-2.01,1.23C81.68,14.13,82.28,13.58,83.09,13.45z"/>
	<path class="st23" d="M161.05,116.84c0.54,0.03,1.13-0.24,1.58,0.32C162.1,117.11,161.49,117.45,161.05,116.84z"/>
	<path class="st24" d="M124.06,96.68c-0.45,0.45-0.97,0.69-1.58,0.67C122.91,96.87,123.44,96.65,124.06,96.68z"/>
	<path class="st25" d="M8.4,98.36c-0.51,0.51-1.05,0.96-1.7,1.23C7.15,98.98,7.68,98.52,8.4,98.36z"/>
	<path class="st3" d="M148.11,122.31c0.38,0.37,0.56,0.85,0.61,1.4C148.19,123.42,148.08,122.91,148.11,122.31z"/>
	<path class="st26" d="M95.73,69.47c-0.41-0.42-0.76-0.88-0.77-1.54C95.33,68.37,95.71,68.81,95.73,69.47z"/>
	<path class="st21" d="M105.46,1.74c-0.41-0.42-0.72-0.91-0.79-1.54C105.05,0.64,105.49,1.04,105.46,1.74z"/>
	<path class="st7" d="M114.04,108.04c-0.07,0.47,0.22,1.04-0.31,1.38C113.76,108.94,113.5,108.38,114.04,108.04z"/>
	<path class="st27" d="M125.45,40.33c-0.44-0.4-0.68-0.92-0.81-1.52C125.12,39.19,125.41,39.68,125.45,40.33z"/>
	<path class="st28" d="M19.82,75.3c-0.06,0.43,0.17,0.74,0.35,1.08c0.14,0.26,0.37,0.48,0.27,0.83c-0.36-0.29-0.46-0.77-0.71-1.15
		C19.59,75.85,19.47,75.51,19.82,75.3z"/>
	<path class="st29" d="M80.45,40c-0.43-0.4-0.68-0.92-0.81-1.52C80.14,38.84,80.36,39.37,80.45,40z"/>
	<path class="st30" d="M147.62,83.07c-0.37-0.31-0.61-0.69-0.61-1.22C147.44,82.11,147.53,82.59,147.62,83.07z"/>
	<path class="st16" d="M126.07,41.55c-0.37-0.3-0.55-0.73-0.62-1.21C125.83,40.63,126.08,41.01,126.07,41.55z"/>
	<path class="st7" d="M113.75,116.46c0.51,0.22,0.22,0.7,0.28,1.06C113.53,117.29,113.76,116.84,113.75,116.46z"/>
	<path class="st31" d="M1.41,117.15c0.49,0.21,0.26,0.68,0.3,1.05C1.2,117.99,1.43,117.53,1.41,117.15z"/>
	<path class="st32" d="M114.05,117.67c0.47,0.22,0.29,0.67,0.3,1.04C113.87,118.5,114.06,118.05,114.05,117.67z"/>
	<path class="st33" d="M42,98.37c-0.17,0.45-0.54,0.58-0.91,0.71C41.23,98.61,41.6,98.46,42,98.37z"/>
	<path class="st9" d="M148.73,102.87c-0.08,0.36,0.16,0.83-0.31,1.04C148.31,103.49,148.43,103.15,148.73,102.87z"/>
	<path class="st21" d="M104.67,0.2c-0.2-0.11-0.41-0.21-0.61-0.32c0.01-0.17,0.03-0.36,0.25-0.28
		C104.56-0.31,104.76-0.16,104.67,0.2z"/>
	<path class="st10" d="M164.32,123c-0.24,0.29-0.51,0.51-0.9,0.39C163.61,122.93,163.96,122.94,164.32,123z"/>
	<path class="st34" d="M88.12,108.05c0.95-1.65,2.21-2.95,3.83-3.77c1.89-0.97,3.85-1.02,5.84-0.37c0.77,0.31,1.52,0.67,2.2,1.18
		c2.51,2,3.87,4.66,3.75,8.12c-0.13,3.65-1.84,6.21-4.66,7.95c-1.3,0.8-2.77,1.2-4.22,1.07c-2.49-0.23-4.56-1.48-6.13-3.67
		c-0.09-0.13-0.2-0.25-0.29-0.38c-0.25-0.46-0.54-0.9-0.73-1.41c-0.39-0.8-0.52-1.68-0.69-2.54l0,0c-0.24-0.86-0.27-1.72-0.01-2.58
		l0,0C87.15,110.36,87.6,109.19,88.12,108.05z"/>
	<path class="st35" d="M88.12,108.05c0.14,0.51-0.21,0.88-0.39,1.23c-0.39,0.75-0.2,1.69-0.72,2.36
		C86.9,110.27,87.38,109.11,88.12,108.05z"/>
	<path class="st35" d="M87.01,111.65c0,0.86,0.01,1.72,0.01,2.58C86.6,113.73,86.59,112.14,87.01,111.65z"/>
	<path class="st35" d="M87.02,114.23c0.44,0.79,0.51,1.73,0.8,2.58c-0.05,0.06-0.11,0.06-0.17,0.01
		C87.2,116.02,86.91,115.19,87.02,114.23z"/>
	<path class="st36" d="M99.99,105.09c-0.78-0.3-1.52-0.68-2.2-1.18C98.66,103.98,99.39,104.4,99.99,105.09z"/>
	<path class="st37" d="M87.65,116.81c0.06,0,0.11,0,0.17-0.01c0.25,0.43,0.6,0.81,0.62,1.38C88,117.84,87.76,117.37,87.65,116.81z"
		/>
	<path class="st34" d="M57.65,117.18c-1.13,2.39-2.94,3.96-5.22,4.7c-2.74,0.89-5.29,0.17-7.51-1.79c-2.55-2.26-3.66-5.26-3.14-8.8
		c0.33-2.23,1.34-4.17,3.01-5.59c0.22-0.19,0.44-0.4,0.65-0.6c0.75-0.48,1.49-0.98,2.34-1.21l0,0c0.28-0.25,0.66-0.13,0.96-0.32
		c2.59-0.33,4.93,0.26,6.93,2.19c0.5,0.48,0.91,1.04,1.33,1.59c0.57,1.11,1.17,2.19,1.4,3.47c0.25,1.38,0.25,2.74,0.01,4.11l0,0
		C58.25,115.71,57.97,116.46,57.65,117.18z"/>
	<path class="st38" d="M58.42,114.93c0-0.82-0.02-1.65,0.01-2.47c0.05-1.63-0.47-3.07-1.22-4.42c-0.13-0.23-0.24-0.42-0.21-0.69
		c0.74,0.68,1.05,1.67,1.36,2.6c0.48,1.43,0.46,2.95,0.33,4.46C58.68,114.63,58.72,114.89,58.42,114.93z"/>
	<path class="st39" d="M47.79,103.89c-0.76,0.44-1.53,0.89-2.34,1.21C46.11,104.43,46.83,103.86,47.79,103.89z"/>
	<path class="st38" d="M57.65,117.18c0.13-0.8,0.36-1.56,0.77-2.25C58.52,115.82,58.21,116.55,57.65,117.18z"/>
	<path class="st39" d="M48.75,103.57c-0.27,0.3-0.58,0.43-0.96,0.32C47.99,103.36,48.4,103.57,48.75,103.57z"/>
	<path class="st34" d="M135.12,119.04c-0.37,0.58-0.84,1.04-1.38,1.41c-0.98,0.82-2.1,1.27-3.3,1.53
		c-5.78,1.39-11.16-4.99-9.64-11.34c0.81-3.38,2.77-5.73,5.87-6.76c4.11-1.37,7.9,0.94,9.68,4.61c0.14,0.28,0.4,0.53,0.34,0.91
		c0.24,0.24,0.05,0.65,0.3,0.88c0.01,0.05,0.02,0.1,0.02,0.15c0.33,1.62,0.31,3.24,0,4.85c-0.01,0.05-0.02,0.1-0.02,0.15
		c-0.27,0.28-0.04,0.75-0.32,1.03c-0.1,0.23-0.21,0.46-0.31,0.69C135.96,117.79,135.68,118.53,135.12,119.04z"/>
	<path class="st40" d="M137.02,115.28c0.02-0.78-0.02-1.56,0.15-2.35c0.1-0.47-0.17-1.03-0.15-1.57c0.01-0.31,0-0.62,0-0.93
		c0.55,0.56,0.34,1.34,0.38,2C137.47,113.38,137.56,114.4,137.02,115.28z"/>
	<path class="st41" d="M130.44,121.99c1.11-0.47,2.24-0.92,3.3-1.53C132.82,121.42,131.75,122.03,130.44,121.99z"/>
	<path class="st42" d="M135.12,119.04c0.39-0.65,0.67-1.39,1.25-1.89C136.14,117.94,135.84,118.66,135.12,119.04z"/>
	<path class="st36" d="M136.68,116.46c0.04-0.37-0.18-0.83,0.32-1.03C137.04,115.83,137.08,116.23,136.68,116.46z"/>
	<path class="st40" d="M137,110.28c-0.46-0.14-0.29-0.55-0.3-0.88C137.16,109.55,137,109.95,137,110.28z"/>
	<path class="st34" d="M14.05,103.9c0.36-0.15,0.69-0.36,1.09-0.35c0.84-0.25,1.68-0.25,2.51,0c0.15,0.01,0.3,0.02,0.44,0.03
		c0.28,0.25,0.69,0.03,0.95,0.33c2.45,1.04,4.23,2.87,5.3,5.52c0.64,1.91,0.74,3.86,0.32,5.84l0,0c-0.24,0.23-0.06,0.64-0.3,0.88
		c-0.93,2.38-2.4,4.18-4.57,5.24c-3,1.46-5.82,1.02-8.44-1.11c-1.37-1.11-2.36-2.53-2.94-4.3c-0.63-2.07-0.64-4.13,0.01-6.2
		c0.65-1.93,1.73-3.49,3.27-4.66C12.44,104.59,13.23,104.22,14.05,103.9z"/>
	<path class="st43" d="M24.66,115.26c0.07-1.96,0.19-3.92-0.32-5.84c0.57,0.21,0.35,0.82,0.48,1.23c0.43,1.35,0.36,2.74,0.13,4.13
		C24.92,114.97,24.86,115.18,24.66,115.26z"/>
	<path class="st44" d="M8.43,109.76c-0.1,1.26-0.39,2.49-0.34,3.78c0.03,0.83,0.49,1.57,0.33,2.41c-0.65-1.33-0.77-2.76-0.54-4.2
		C7.99,111.09,7.91,110.31,8.43,109.76z"/>
	<path class="st45" d="M17.65,103.54c-0.84,0-1.68,0-2.51,0c-0.01-0.06-0.04-0.15-0.03-0.16C15.53,103.06,17.28,103.18,17.65,103.54
		z"/>
	<path class="st46" d="M14.05,103.9c-0.73,0.51-1.52,0.9-2.34,1.21C12.36,104.41,13.11,103.94,14.05,103.9z"/>
	<path class="st45" d="M19.05,103.91c-0.36,0.04-0.72,0.07-0.95-0.33C18.44,103.59,18.87,103.31,19.05,103.91z"/>
	<path class="st43" d="M24.37,116.14c0.05-0.31-0.18-0.74,0.3-0.88C24.67,115.59,24.85,116,24.37,116.14z"/>
</g>
</svg>
