<?xml version="1.0" encoding="utf-8"?>
<!-- Generator: Adobe Illustrator 26.3.1, SVG Export Plug-In . SVG Version: 6.00 Build 0)  -->
<svg version="1.1" id="Capa_1" xmlns="http://www.w3.org/2000/svg" xmlns:xlink="http://www.w3.org/1999/xlink" x="0px" y="0px"
	 viewBox="0 0 238.47 200" style="enable-background:new 0 0 238.47 200;" xml:space="preserve">
<style type="text/css">
	.st0{fill:#1D1D1C;}
	.st1{fill:#1F1F1E;}
	.st2{fill:#1E1E1D;}
	.st3{fill:#1F1F1F;}
	.st4{fill:#1E1E1C;}
	.st5{fill:#46E549;}
</style>
<g>
	<path class="st0" d="M71.04,157.16c-16.45-3.45-31.89-11.32-47.16-20.25c-2.37-1.39-1.61-3.03-1.04-5.22
		c5.95-22.82,16.52-39.41,31.25-50.41c0.91-0.68,1.84-1.34,3.25-2.38c-7.96-5.62-14.88-12.08-20.71-20.85
		c-6.21-9.36-10.8-20.21-13.95-32.43c-0.5-1.96-0.99-3.31,0.92-4.46c15.31-9.18,30.9-16.9,47.67-20.55
		c0.29,12.24,0.56,24.23,0.84,36.22c0.16,6.36,0.25,12.72,0.49,19.07c0.2,5.58,2.98,9.04,5.22,12.88c0.63,1.09,1.58,0.15,2.37-0.12
		c24.48-8.24,48.97-8.26,73.5-0.39c3.68,1.18,8.72-6.55,8.73-13.33c0.02-16.45,0.12-32.91-0.06-49.36
		c-0.05-4.26,0.75-4.92,3.43-4.29c13.49,3.17,26.23,9.36,38.18,19.17c1.97,1.62,2.51,3.95,2.76,6.83c0.92,10.32-2,18.58-6.44,25.98
		c-5.54,9.24-12.37,16.13-19.38,22.66c-3.22,3-3.21,2.98,0.11,6.08c7.31,6.84,14.43,14.03,20.05,23.93
		c3.9,6.87,6.34,14.48,5.75,23.74c-0.24,3.76-1.15,6.41-3.58,8.35c-12.03,9.59-24.79,15.72-38.3,18.73
		c-2.39,0.53-2.54-0.7-2.54-3.47c0.05-16.63-0.07-33.26,0.06-49.89c0.06-6.89-3.35-10.12-6.1-14.14c-0.73-1.06-1.61-0.01-2.39,0.24
		c-24.51,7.92-49.02,7.95-73.49-0.29c-2.01-0.68-3.04,0.05-4.19,2.2c-2.25,4.24-3.82,8.43-3.84,14.31
		c-0.06,16.08-0.68,32.15-1.1,48.22C71.32,154.97,71.16,156,71.04,157.16z"/>
	<path class="st1" d="M167.11,184.07c-2.34,2.05-0.92,8.78-4.9,8.4c-3.54-0.34-2.37-6.24-4.83-8.99c0,4.11-0.07,7.8,0.02,11.47
		c0.07,2.61-0.05,4.26-2.39,4.23c-2.15-0.03-2.55-1.2-2.5-4.01c0.12-6.7,0-13.42,0.08-20.12c0.02-1.42-0.84-4.1,1.26-3.85
		c1.72,0.21,3.94-1.76,5.08,1.87c1.11,3.5,2.19,7.03,3.55,11.41c1.18-3.85,2.2-7.06,3.16-10.31c0.55-1.83,1.1-3.04,2.79-3.22
		c3.13-0.33,4.43,0.86,4.15,5.91c-0.33,5.96-0.17,12-0.04,17.99c0.06,2.95-0.2,4.32-2.64,4.34c-2.66,0.03-2.5-1.99-2.51-4.62
		C167.37,191.09,167.78,187.56,167.11,184.07z"/>
	<path class="st1" d="M26.57,182.44c0,3.99,0.02,7.97-0.01,11.96c-0.01,2.28,0.62,4.79-2.25,4.8c-2.67,0.01-2.51-1.95-2.48-4.59
		c0.07-6.17-0.05-12.35,0.1-18.52c0.04-1.64-0.97-4.59,0.92-4.78c2.02-0.2,4.52-1.93,6.08,2.17c1.48,3.9,3.29,7.53,5.55,12.65
		c0-4.85,0.06-8.12-0.02-11.38c-0.06-2.38,0.06-3.82,2.21-3.79c2.12,0.03,2.6,1.07,2.54,3.95c-0.13,6.52,0,13.05-0.08,19.58
		c-0.02,1.54,0.8,4.1-0.89,4.41c-1.71,0.31-3.73,1.21-5-2.24c-1.82-4.94-3.97-9.62-5.98-14.41
		C27.04,182.31,26.8,182.37,26.57,182.44z"/>
	<path class="st2" d="M195.57,184.94c0,9.08-3.74,14.78-9.73,14.8c-5.97,0.02-9.93-5.8-9.94-14.63c-0.01-8.94,3.82-14.68,9.82-14.74
		C191.8,170.32,195.57,175.9,195.57,184.94z"/>
	<path class="st2" d="M101,198.37c-4.55,2.56-6.9-0.84-9-5.58c-0.72-1.61-1.22-4.5-3.04-3.76c-1.97,0.8-0.79,3.58-0.96,5.44
		c-0.22,2.33,0.48,4.76-2.38,4.73c-2.72-0.02-2.8-1.84-2.75-4.81c0.1-6.54,0.1-13.09-0.01-19.63c-0.05-2.62,0.32-3.92,2.34-3.74
		c2.87,0.26,5.75,0.07,8.64,0.26c2.06,0.14,3.82,1.64,4.56,4.44c0.81,3.08,0.8,6.69-1.09,8.82c-2.36,2.66-1.22,4.47,0.05,6.75
		C98.61,193.55,99.76,195.94,101,198.37z"/>
	<path class="st2" d="M150.35,198.49c-3.91,1.6-6.78,0.54-8.6-4.73c-0.54-1.55-1.29-3.04-2.18-4.18c-0.95-1.21-2.03-1.45-2.12,1.22
		c-0.05,1.41-0.12,2.85,0.01,4.23c0.33,3.42-0.75,4.07-2.86,4.12c-2.11,0.05-2.27-1.33-2.25-3.81c0.08-6.89,0.11-13.78-0.01-20.67
		c-0.05-2.65,0.33-3.86,2.34-3.65c2.63,0.27,5.28,0.03,7.91,0.2c2.28,0.15,4.29,1.38,5.08,4.83c0.77,3.38,0.6,6.96-1.48,9.13
		c-1.83,1.9-1.21,3.08-0.18,4.92C147.5,192.76,148.86,195.59,150.35,198.49z"/>
	<path class="st0" d="M49.32,171.08c7.76,0.04,11.14,2.98,12.31,10.73c1.28,8.44-2.48,16.14-8.3,17.02
		c-9.46,1.44-9.46,1.44-9.46-12.41c0-2.48,0-4.95,0-7.43C43.86,171.05,43.86,171.05,49.32,171.08z"/>
	<path class="st2" d="M238.21,198.39c-4.79,2.57-7.25-1.01-9.32-6.08c-0.62-1.52-1.14-4.04-2.81-3.38
		c-1.87,0.74-0.74,3.28-0.95,4.99c-0.28,2.36,0.68,5.5-2.46,5.21c-1.81-0.16-2.49-0.67-2.44-3.53c0.13-7.06,0.1-14.12,0.01-21.18
		c-0.02-2.36,0.26-3.56,2.13-3.39c2.75,0.25,5.51,0.04,8.27,0.21c2.15,0.14,4.06,1.38,4.84,4.53c0.84,3.35,0.73,6.95-1.3,9.2
		c-1.82,2.02-1.41,3.33-0.23,5.36C235.44,192.85,236.74,195.56,238.21,198.39z"/>
	<path class="st2" d="M198.8,181.73c0-2.12,0.07-4.24-0.02-6.35c-0.12-2.72-0.05-4.45,2.5-4.47c2.49-0.02,2.69,1.47,2.6,4.35
		c-0.12,4.05-0.04,8.11-0.02,12.17c0.01,3.46,0.49,6.49,3.45,6.54c2.98,0.05,3.42-2.9,3.39-6.42c-0.04-4.41,0.13-8.83-0.06-13.22
		c-0.13-3.17,0.95-3.26,2.57-3.3c1.7-0.03,2.69,0.28,2.6,3.36c-0.16,4.93,0,9.87-0.07,14.81c-0.08,6.61-2.49,9.88-7.37,10.18
		c-6.07,0.37-9.04-2.44-9.5-9.19c-0.19-2.79-0.04-5.64-0.04-8.46C198.82,181.73,198.81,181.73,198.8,181.73z"/>
	<path class="st3" d="M0.63,181.94c0-2.12,0-4.23,0-6.35c0-2.37-0.48-4.72,2.33-4.69c2.63,0.02,2.85,1.63,2.75,4.66
		c-0.13,4.22-0.01,8.46-0.04,12.69c-0.02,3.24,0.73,5.55,3.18,5.75c2.68,0.22,3.56-2.33,3.65-5.65c0.11-4.4,0.08-8.82-0.01-13.22
		c-0.06-2.65,0.16-4.27,2.45-4.17c1.95,0.09,2.78,0.7,2.67,3.82c-0.17,4.92,0.12,9.89-0.1,14.8c-0.33,7.36-3.18,10.18-9.43,9.81
		c-5.06-0.3-7.33-3.51-7.44-10.58C0.59,186.53,0.63,184.23,0.63,181.94z"/>
	<path class="st4" d="M109.96,199.16c2.28-9.08,4.46-17.06,6.26-25.22c0.77-3.49,2.34-2.66,3.92-2.89c1.72-0.25,2.88,0.26,3.52,3.02
		c1.6,6.98,3.45,13.85,5.06,20.83c0.28,1.19,1.71,3.33,0.17,3.84c-1.45,0.47-3.54,1.81-4.79-1.44c-2.07-5.4-6.51-5.36-8.6,0.03
		C114.14,200.81,112.13,198.29,109.96,199.16z"/>
	<path class="st2" d="M65.37,184.01c0.38-3.64-1.44-9.65,0.69-12.25c1.79-2.19,5.72-0.61,8.71-0.68c1.08-0.03,2.15-0.01,3.24,0.02
		c1.57,0.03,1.1,1.8,1.17,3.07c0.07,1.33-0.01,2.47-1.26,2.43c-1.91-0.06-3.84,0.02-5.75-0.04c-1.1-0.03-1.81,0.19-1.78,2.25
		c0.01,2.1,0.79,2.21,1.84,2.17c1.32-0.04,2.64,0.11,3.96-0.03c1.6-0.18,2.33,0.39,2.34,3.14c0,2.98-1.06,3.03-2.49,2.95
		c-1.08-0.06-2.17,0.06-3.24-0.04c-1.46-0.13-2.46-0.06-2.44,2.93c0.04,2.87,0.71,3.73,2.52,3.48c1.3-0.18,2.64,0.06,3.96-0.05
		c1.5-0.14,2.46,0.05,2.42,2.98c-0.05,2.6-0.86,2.77-2.23,2.74c-3.24-0.08-6.48-0.14-9.71,0.03c-1.65,0.09-2.03-0.9-1.97-3.1
		C65.44,192.3,65.37,188.58,65.37,184.01z"/>
	<path class="st5" d="M146.58,78.78c-14.83,15.18-43.94,15.27-59.57,0.48C98.67,65.5,127.37,62.1,146.58,78.78z"/>
	<path class="st5" d="M190.29,184.75c0.04,5.67-1.57,9.16-4.31,9.33c-2.81,0.17-4.65-3.27-4.71-8.76c-0.05-5.62,1.57-9.09,4.33-9.3
		C188.45,175.8,190.26,179.17,190.29,184.75z"/>
	<path class="st5" d="M87.93,180.06c-0.18-2.18-0.05-4.11,2.12-3.72c1.65,0.3,3.61,0.11,3.51,3.65c-0.11,3.31-2.07,3.31-3.68,3.74
		C87.78,184.3,87.86,182.24,87.93,180.06z"/>
	<path class="st5" d="M137.5,180.73c-0.25-2.9-0.14-4.85,2.07-4.32c1.41,0.33,3.03,0.07,3.11,3.14c0.12,4.03-2.06,3.68-3.73,4.11
		C136.73,184.22,137.69,181.58,137.5,180.73z"/>
	<path class="st5" d="M48.91,184.88c0-1.05-0.1-2.13,0.02-3.15c0.2-1.71-0.78-4.22,0.79-4.99c1.42-0.7,3.06-0.31,4.45,1.04
		c3.01,2.92,3.36,10.22,0.65,13.8c-1.46,1.92-3.29,2.57-5,1.84c-1.87-0.8-0.57-3.56-0.87-5.39
		C48.77,187.03,48.91,185.93,48.91,184.88z"/>
	<path class="st5" d="M224.95,178.9c-0.12-1.3,0.25-2.99,2.32-2.57c1.5,0.31,3.33-0.01,3.36,3.3c0.04,3.75-2.03,3.71-3.76,4.14
		C224.68,184.3,225.09,181.91,224.95,178.9z"/>
	<path class="st5" d="M120,178.59c0.47,4.16,2.28,6.44,1.26,9.18c-0.36,0.96-2.58,0.96-2.89-0.07
		C117.51,184.92,119.09,182.58,120,178.59z"/>
</g>
</svg>
