<?xml version="1.0" encoding="utf-8"?>
<!-- Generator: Adobe Illustrator 26.3.1, SVG Export Plug-In . SVG Version: 6.00 Build 0)  -->
<svg version="1.1" id="Capa_1" xmlns="http://www.w3.org/2000/svg" xmlns:xlink="http://www.w3.org/1999/xlink" x="0px" y="0px"
	 viewBox="0 0 111.83 169.7" style="enable-background:new 0 0 111.83 169.7;" xml:space="preserve">
<style type="text/css">
	.st0{fill:#0374FE;}
	.st1{fill:#1AB0FD;}
	.st2{fill:#077FFD;}
	.st3{fill:#0D8DFE;}
	.st4{fill:#0C8BFD;}
	.st5{fill:#1A1559;}
	.st6{fill:#15A1FE;}
	.st7{fill:#25CDFD;}
	.st8{fill:#01B64F;}
	.st9{fill:#E40129;}
	.st10{fill:#E3E2E5;}
	.st11{fill:#2BDFFE;}
	.st12{fill:#139DFE;}
	.st13{fill:#1A1558;}
	.st14{fill:#286BC3;}
	.st15{fill:#0A88FD;}
	.st16{fill:#0477FD;}
	.st17{fill:#1EBAFD;}
	.st18{fill:#26D2FC;}
	.st19{fill:#007923;}
</style>
<g>
	<path class="st0" d="M16.5,87.64c0.79-3.15,1.91-6.12,2.89-9.17c2.4-7.46,4.84-14.89,7.27-22.33c0.33-1.01,0.69-2,1.04-3
		c0.47-0.5,1-0.39,1.51-0.2c1.82,0.7,3.52,1.75,5.25,2.77c1.3,0.76,2.55,1.74,4.04,1.84c0.89,0.06,1.71,0.67,2.43,1.26
		c1.02,0.83,2.13,1.12,3.24,1.51c1.39,0.49,2.55,1.42,3.46,2.88c0.15,0.84-0.21,1.53-0.42,2.24c-1.87,6.51-3.67,13.06-5.62,19.53
		c-0.28,0.94-0.67,1.83-0.94,2.78c-0.26,0.7-0.75,0.78-1.25,0.78c-7.28,0.02-14.57,0.02-21.85-0.01
		C17.1,88.51,16.5,88.63,16.5,87.64z"/>
	<path class="st1" d="M34.64,31.76c1.92-6.15,3.9-12.27,5.98-18.33c0.26-0.74,0.67-0.84,1.22-0.54c2,1.1,4.04,2.05,6.08,3
		c2.47,1.16,4.9,2.53,7.38,3.55c4.22,1.74,8.23,4.2,12.42,6c2.23,0.96,4.37,2.32,6.69,2.88c0.62,0.15,0.92,0.8,1.37,1.22
		c1.2,3.63,2.41,7.26,3.59,10.9c0.61,1.9,1.37,3.72,1.75,5.74c-0.39,0.51-0.86,0.44-1.27,0.18c-1.94-1.22-4.09-1.65-6.06-2.75
		c-2.39-1.33-4.83-2.52-7.28-3.62c-3.08-1.38-6.14-2.84-9.18-4.37c-0.62-0.31-0.9,0.19-1.31,0.47c-0.34,0.1-0.51,0.41-0.62,0.83
		c-0.29,1.17-0.81,2.21-1.19,3.33c-0.38,0.9-0.79,0.88-1.3,0.14c-0.6-0.86-1.31-1.37-2.26-1.55c-1.14-0.21-2.14-1.1-3.23-1.63
		c-3.35-1.61-6.69-3.25-10.11-4.6C36.42,32.28,35.63,31.48,34.64,31.76z"/>
	<path class="st2" d="M91.01,76.47c1.34,3.84,2.71,7.67,3.76,11.67c-0.4,0.34-0.85,0.39-1.32,0.4c-7.2,0-14.4,0.01-21.61,0
		c-0.58,0-1.14-0.06-1.44-0.85c-0.89-2.46-1.52-5.07-2.31-7.59c-0.56-1.81-0.55-1.82-2.08-1.82c-5.23,0-10.46,0-15.69,0
		c-0.28,0-0.56,0.01-0.84-0.01c-1.27-0.07-1.53-0.53-1.12-2.07c1.32-4.88,2.76-9.7,4.13-14.55c0.12-0.44,0.26-0.86,0.57-1.13
		c1.21-0.27,2.4,0.05,3.51,0.54c2.79,1.24,5.46,2.89,8.13,4.49c0.86,0.51,1.77,0.56,2.63,0.93c2.1,0.91,4.11,2.18,6.23,2.98
		c2.93,1.1,5.64,3.02,8.61,4.03c1.24,0.42,2.44,1.26,3.68,1.88c1.25,0.62,2.6,0.84,3.76,1.76c0.36,0.28,0.58,0.05,0.72-0.43
		C90.48,76.21,90.68,75.95,91.01,76.47z"/>
	<path class="st3" d="M34.64,31.76c0.64-0.68,1.19-0.53,1.89,0.02c1.23,0.96,2.7,1.08,4,1.89c1.51,0.95,3.19,1.31,4.76,2.2
		c1.76,1,3.57,2.1,5.42,2.65c1.13,0.33,1.87,0.93,2.54,1.93c0.55,0.83,0.54-0.24,0.81-0.34c0.39,0.58,0.12,1.15-0.04,1.69
		c-1.96,6.69-3.85,13.42-5.78,20.12c-0.15,0.51-0.25,1.08-0.74,1.25c-0.16,0.09-0.32,0.18-0.43-0.12c-0.11-0.28-0.21-0.7-0.39-0.79
		c-1.41-0.69-2.61-2.24-4.28-1.91c-0.27,0.05-0.42-0.29-0.62-0.45c-1.25-0.97-2.5-1.81-4.01-2.09c-1.2-0.22-2.35-1.06-3.49-1.72
		c-2.13-1.23-4.14-2.93-6.58-2.93c1.24-3.89,2.47-7.79,3.72-11.68C32.47,38.22,33.56,34.99,34.64,31.76z"/>
	<path class="st4" d="M91.01,76.47c-0.43-0.22-0.46,0.11-0.45,0.54c0.02,0.91-0.32,1.02-0.87,0.65c-1.74-1.17-3.62-1.82-5.48-2.53
		c-0.23-0.09-0.54-0.07-0.69-0.27c-1.08-1.33-2.52-1.44-3.82-1.96c-1.41-0.57-2.66-1.66-4.06-2.16c-2.82-1.02-5.43-2.89-8.27-3.76
		c-2.26-0.69-4.38-1.89-6.4-3.15c-1.41-0.88-2.93-1.36-4.31-2.33c-1.04-0.73-2.31-0.53-3.46-0.85c-0.26-1.08,0.07-1.86,0.72-2.47
		c2.19-0.27,4.38-0.04,6.57-0.13c0.39-0.02,0.85,0.26,1.14-0.34c-0.31-1.75-0.94-3.35-1.33-5.06c-0.11-0.48-0.3-0.93-0.25-1.46
		c0.24-2.39,0.32-2.64,1.97-1.65c2.39,1.44,5.05,1.81,7.37,3.5c1.01,0.74,2.24,0.65,3.3,1.34c2.13,1.37,4.34,2.57,6.61,3.47
		c1.91,0.76,3.76,1.79,5.74,2.24c0.41,0.09,0.67,0.47,0.94,0.84c1.2,3.61,2.43,7.21,3.59,10.85C90.05,73.32,90.72,74.79,91.01,76.47
		z"/>
	<path class="st5" d="M94.41,88.65c-2.38,2.03-4.75,4.07-7.14,6.08c-5.7,4.78-11.41,9.55-17.13,14.31
		c-4.71,3.93-9.41,7.85-14.12,11.77c-0.12-0.16-0.15-0.35-0.12-0.56c1.16-3.1,2.71-5.9,4-8.9c0.33-0.76,0.6-1.56,1-2.27
		c2.4-4.9,4.6-9.95,6.93-14.9c0.74-1.57,1.51-3.12,2.18-4.75c0.17-0.41,0.38-0.78,0.72-0.99c0.37-0.19,0.76-0.16,1.15-0.16
		c7.17,0,14.34-0.01,21.51,0.02C93.73,88.3,94.18,87.98,94.41,88.65z"/>
	<path class="st5" d="M55.11,120.74c-3.79-3.15-7.58-6.29-11.37-9.45c-7.96-6.64-15.91-13.29-23.87-19.94
		c-0.94-0.78-1.87-1.6-2.8-2.39c-0.12-0.25-0.23-0.53,0.08-0.64c0.27-0.09,0.56-0.03,0.84-0.03c7.05,0,14.09,0,21.14,0
		c0.42,0,0.84-0.06,1.24,0.18c0.99,0.97,1.4,2.51,2.04,3.81c1.1,2.25,2.1,4.59,3.16,6.87c1.78,3.79,3.56,7.58,5.28,11.42
		c1.32,2.86,2.68,5.69,3.97,8.58C55.06,119.61,55.48,120.08,55.11,120.74z"/>
	<path class="st6" d="M85.96,60.91c-2-0.82-3.97-1.74-6-2.42c-1.47-0.49-2.79-1.43-4.21-2c-1.81-0.73-3.42-2.07-5.28-2.65
		c-1.63-0.51-3.17-1.54-4.76-2.31c-0.36-0.17-0.74-0.29-1.12-0.33c-1.3-0.14-2.32-1.22-3.48-1.82c-0.67-0.34-0.69-0.21-0.7,0.53
		c-0.01,0.44,0.12,0.94-0.21,1.3c-0.43,0.02-0.48-0.46-0.59-0.82c-1.23-4.29-2.44-8.6-3.69-12.89c-0.14-0.49-0.36-1.02-0.12-1.58
		c0.59-1.21,1.2-0.82,2.07-0.38c2.23,1.12,4.42,2.42,6.7,3.29c3.96,1.51,7.68,3.85,11.59,5.49c1.29,0.54,2.61,0.9,3.82,1.77
		c0.3,0.22,0.75,0.07,1.14,0.09c1.31,3.13,2.19,6.52,3.31,9.77C84.98,57.58,85.45,59.26,85.96,60.91z"/>
	<path class="st7" d="M75.78,29.55c-2.84-1.3-5.71-2.48-8.5-3.92c-3.14-1.62-6.29-3.22-9.45-4.74c-2.2-1.06-4.45-2.08-6.67-3.09
		c-1.28-0.58-2.58-1.18-3.85-1.84c-1.94-1.01-3.96-1.78-5.86-2.93c-0.4-0.24-0.55,0.27-0.83,0.4c0.52-2,1.21-3.91,1.89-5.82
		c0.99-1.11,2.16-0.8,3.22-0.48c1.51,0.46,3.06,0.8,4.4,2.1c1.01,0.97,2.48,0.65,3.59,1.44c1.56,1.11,3.32,1.27,4.94,1.99
		c1.52,0.67,3.03,1.41,4.59,1.92c0.34,0.11,0.74,0.26,0.92,0.63c0.53,1.12,1.37,1.33,2.24,1.53c2.03,0.46,3.69,2.21,5.69,2.79
		c0.3,0.09,0.49,0.36,0.43,0.82c-0.08,0.59,0.32,0.63,0.55,0.87c0.53,2.74,1.94,4.99,2.55,7.68C75.66,29.11,75.72,29.33,75.78,29.55
		z"/>
	<path class="st8" d="M36.92,169.46c-0.32,0.02-0.63,0.05-0.95,0.05c-11.77,0-23.54-0.01-35.31,0.03c-0.84,0-1.11-0.3-1.01-1.37
		c0.1-1.14-0.36-2.61,0.17-3.35c0.54-0.76,1.66-0.24,2.53-0.24c11.52-0.02,23.05-0.02,34.57-0.02
		C37.56,166.19,37.56,167.82,36.92,169.46z"/>
	<path class="st9" d="M74.13,164.79c0.26-0.37,0.59-0.21,0.89-0.21c11.8-0.01,23.61,0,35.41-0.04c0.85,0,1.11,0.33,1.02,1.4
		c-0.09,1.14,0.36,2.63-0.17,3.34c-0.53,0.72-1.66,0.21-2.53,0.21c-11.1,0.02-22.2,0.01-33.31,0.01c-0.42,0-0.84-0.03-1.26-0.05
		C73.51,167.92,73.62,166.36,74.13,164.79z"/>
	<path class="st5" d="M42.95,143.09c0-3.15,0.01-6.29-0.01-9.44c0-0.75,0.06-1.22,0.78-1.2c2.21,0.07,4.43-0.01,6.64,0.1
		c2.16,0.11,3.98,1.99,4.51,4.43c0.66,3.03-0.05,5.83-2,7.53c-0.58,0.5-0.51,0.9-0.25,1.55c0.84,2.13,1.63,4.3,2.48,6.42
		c0.43,1.07,0.2,1.17-0.64,1.33c-2.13,0.41-3.42-0.54-4.03-3.32c-0.3-1.36-0.9-2.6-1.34-3.91c-0.19-0.56-0.44-0.85-0.94-0.89
		c-1.71-0.12-1.71-0.15-1.7,2.15c0,1.57-0.03,3.15,0.02,4.72c0.03,0.88-0.15,1.21-0.87,1.23c-2.63,0.05-2.63,0.08-2.63-3.36
		C42.96,147.99,42.96,145.54,42.95,143.09C42.96,143.09,42.95,143.09,42.95,143.09z"/>
	<path class="st10" d="M74.13,164.79c0.02,1.56,0.04,3.11,0.06,4.67c-2.21,0.02-4.42,0.05-6.63,0.05c-9.76,0.01-19.51,0-29.27,0
		c-0.46,0-0.91-0.03-1.37-0.05c0-1.64,0-3.27,0-4.91c4.47,0.03,8.93,0.07,13.4,0.08c7.49,0.01,14.98,0,22.47,0.01
		C73.24,164.64,73.68,164.74,74.13,164.79z"/>
	<path class="st5" d="M21.81,132.21c1.76-0.09,3.4,0.5,4.93,1.63c0.55,0.4,0.86,0.84,0.28,1.58c-0.1,0.12-0.14,0.31-0.21,0.47
		c-0.91,1.94-0.91,1.95-2.43,1.05c-1.02-0.6-2.08-0.86-3.18-0.64c-0.89,0.18-1.48,0.85-1.55,2.09c-0.06,1.16,0.46,1.81,1.27,2.06
		c1.06,0.32,2.13,0.55,3.19,0.85c2.69,0.77,4.06,2.89,4.03,6.23c-0.02,3.2-1.66,5.72-4.14,6.39c-2.82,0.76-5.42,0.1-7.83-1.98
		c-0.72-0.62-0.8-1.14-0.14-1.92c0.52-0.61,0.87-1.65,1.46-1.93c0.58-0.27,1.09,0.81,1.69,1.16c1.25,0.72,2.51,1.15,3.88,0.68
		c0.92-0.31,1.5-1.05,1.51-2.33c0.01-1.3-0.7-1.82-1.52-2.13c-1.14-0.43-2.36-0.41-3.49-0.96c-2.69-1.3-3.75-3.43-3.41-6.94
		c0.28-2.85,2.26-5.1,4.72-5.36C21.17,132.18,21.49,132.21,21.81,132.21z"/>
	<path class="st5" d="M30.01,143.13c0-3.1,0.02-6.2-0.01-9.29c-0.01-0.89,0.11-1.34,0.91-1.32c3.02,0.06,6.04,0.05,9.06,0
		c0.7-0.01,0.92,0.31,0.9,1.19c-0.06,3.33,0.3,2.72-2,2.77c-1.5,0.03-3,0.05-4.5-0.01c-0.71-0.03-0.9,0.32-0.91,1.21
		c-0.04,3.42-0.06,3.41,2.57,3.42c0.95,0,1.9,0.02,2.84-0.01c0.58-0.02,0.83,0.27,0.81,1.06c-0.05,3.35,0.34,2.87-2.03,2.89
		c-1.12,0.01-2.25,0.03-3.37-0.01c-0.58-0.02-0.79,0.23-0.82,1.02c-0.14,3.76-0.16,3.76,2.63,3.76c1.3,0,2.6,0.02,3.9-0.01
		c0.57-0.01,0.8,0.22,0.82,1.03c0.07,2.94,0.1,2.94-2.15,2.94c-2.49,0-4.99-0.05-7.48,0.03c-0.9,0.03-1.23-0.26-1.2-1.52
		C30.06,149.23,30.01,146.18,30.01,143.13z"/>
	<path class="st11" d="M44.77,0.91c0.32-0.41,0.73-0.24,1.1-0.24c6.56-0.01,13.11-0.01,19.67-0.03c0.52,0,0.92,0.05,1.16,0.82
		c1.41,4.41,2.85,8.81,4.28,13.21c0.04,0.12,0.02,0.27,0.03,0.41c-0.28,0.21-0.5,0.01-0.64-0.24c-0.88-1.51-2.25-1.75-3.46-2.44
		c-1.21-0.69-2.5-1.06-3.71-1.83c-1.29-0.83-2.77-1.22-4.16-1.87c-2.28-1.07-4.51-2.32-6.78-3.38c-1.75-0.82-3.47-1.73-5.3-2.22
		C45.98,2.84,45.25,2.07,44.77,0.91z"/>
	<path class="st5" d="M93.19,153.9c-1.67-0.01-1.75,0.02-2.18-2.16c-0.3-1.52-0.84-2.12-2.04-1.95c-1.08,0.15-2.18,0.09-3.26,0.01
		c-0.7-0.05-0.98,0.35-1.18,1.18c-0.68,2.93-0.7,2.93-3.12,2.91c-1.15-0.01-1.14-0.02-0.75-1.44c1.69-6.26,3.38-12.52,5.04-18.8
		c0.22-0.84,0.51-1.14,1.19-1.14c2.5,0.01,2.52-0.03,3.34,3c1.5,5.57,2.96,11.15,4.44,16.73c0.44,1.66,0.44,1.66-0.85,1.65
		C93.61,153.9,93.4,153.9,93.19,153.9z"/>
	<path class="st5" d="M63.49,143.17c0-3.1,0.03-6.2-0.02-9.3c-0.01-0.99,0.15-1.38,0.98-1.36c2.95,0.07,5.9,0.06,8.85,0
		c0.79-0.02,1.05,0.31,1.02,1.34c-0.09,2.89,0.42,2.65-2.01,2.63c-1.5-0.01-3,0.04-4.5,0c-0.63-0.02-0.85,0.23-0.86,1.1
		c-0.06,3.52-0.08,3.52,2.58,3.52c0.95,0,1.9,0.02,2.84-0.01c0.53-0.02,0.73,0.24,0.77,0.96c0.15,3.01,0.17,3-2.15,2.99
		c-1.09,0-2.18,0.03-3.27-0.01c-0.6-0.02-0.76,0.26-0.78,1.04c-0.06,3.73-0.08,3.73,2.72,3.74c1.26,0,2.53,0.04,3.79-0.02
		c0.66-0.03,0.89,0.32,0.86,1.13c-0.12,3.26,0.49,2.83-2.05,2.85c-2.63,0.02-5.27-0.02-7.9,0.02c-0.7,0.01-0.91-0.29-0.9-1.19
		C63.51,149.46,63.49,146.32,63.49,143.17z"/>
	<path class="st7" d="M44.77,0.91c1.72,2.26,4.15,2.26,6.23,3.37c1.41,0.75,2.84,1.41,4.24,2.18c1.76,0.97,3.63,1.6,5.38,2.62
		c1.19,0.7,2.6,0.56,3.65,1.84c0.56,0.68,1.48,0.6,2.22,0.93c1.68,0.75,3.32,1.39,4.51,3.23c0.87,1.94,1.45,4.04,2.06,6.13
		c-0.14,0-0.28,0-0.42,0c-0.28,0-0.59,0.02-0.73-0.39c-0.16-0.49,0.44-0.37,0.43-0.83c-1.58-0.67-3.14-1.31-4.58-2.45
		c-0.62-0.5-1.46-0.68-2.21-0.68c-0.63-0.01-1-0.2-1.24-0.92c-0.2-0.63-0.65-0.9-1.08-1.01c-1.71-0.42-3.36-1.07-4.91-2.16
		c-0.33-0.23-0.69-0.11-1.03-0.17c-1.02-0.18-2.02-0.16-2.89-1.25c-0.51-0.64-1.45-0.75-2.22-0.94c-1.1-0.28-2.23-0.38-3.01-1.62
		c-0.29-0.46-0.73-0.26-1.08-0.42c-1.32-0.61-2.65-1.02-4.07-1.1c-0.57-0.04-0.99,0.49-1.52,0.35C43.19,5.34,43.83,3.04,44.77,0.91z
		"/>
	<path class="st12" d="M55.11,120.74c-0.51-2.13-1.7-3.76-2.47-5.7c-0.6-1.5-1.32-2.92-1.98-4.37c-0.87-3.65-0.4-7.41-0.48-11.12
		c-0.06-2.86-0.01-5.73-0.01-8.59c0-1.2,0.27-2.18,1.14-2.74c1.5-0.29,3-0.27,4.5-0.02c0.17,0.12,0.29,0.32,0.2,0.56
		c-0.61,1.76-0.44,3.62-0.43,5.46c0.05,6.28,0.04,12.55,0,18.83c-0.02,2.46,0.19,4.88,0.38,7.3c0.02,0.16,0.04,0.32,0.06,0.48
		C55.7,121.23,55.39,121.19,55.11,120.74z"/>
	<path class="st13" d="M60.85,143.15c0,3.14-0.03,6.28,0.02,9.42c0.01,1.04-0.24,1.35-1.02,1.35c-2.47-0.01-2.47,0.03-2.47-3.18
		c0-5.59,0.02-11.18-0.02-16.77c-0.01-1.17,0.28-1.47,1.14-1.45c2.35,0.06,2.35,0.01,2.35,3.15
		C60.85,138.16,60.85,140.65,60.85,143.15z"/>
	<path class="st14" d="M55.98,88.43c-1.54,0-3.09-0.01-4.63-0.01c-1.49,0.83-3.06,0.29-4.59,0.43c-2.06,0.03-4.12-0.13-6.18,0.13
		c-0.35-0.45-0.76-0.56-1.25-0.56c-7.17,0.02-14.34,0.01-21.5,0.02c-0.27,0-0.77-0.35-0.74,0.5c-0.33-0.33-1.08-0.34-0.58-1.31
		c0.15,0.61,0.53,0.49,0.87,0.49c7.39,0,14.78-0.01,22.18,0.03c0.56,0,0.79-0.36,1.04-0.86c0.6,0.31,1.22,0.4,1.86,0.4
		c8.75-0.01,17.49-0.01,26.24,0c0.64,0,1.26-0.08,1.86-0.4c0.22,0.94,0.79,0.84,1.36,0.84c7.63-0.01,15.25-0.01,22.88-0.01
		c0,0.32-0.13,0.48-0.36,0.51c-0.31-0.3-0.67-0.19-1.02-0.2c-7.14-0.01-14.28-0.01-21.42-0.03c-0.54,0-1.03,0.08-1.46,0.55
		c-2.47-0.29-4.95-0.03-7.42-0.14c-1.88-0.08-3.75,0.1-5.63,0.03C56.95,88.84,56.41,88.97,55.98,88.43z"/>
	<path class="st5" d="M70.54,87.3c0.04,1.1-0.58,0.82-1.02,0.82c-6.03,0-12.06-0.02-18.09-0.02c-3.3,0-6.59,0-9.89-0.01
		c-0.42,0-0.99,0.22-0.94-0.78c0.65-2.18,1.31-4.34,1.94-6.53c1.67-5.78,3.33-11.56,4.99-17.34c0.02-0.08,0-0.18-0.01-0.27
		c1.19-4.07,2.38-8.13,3.57-12.2c0.9-3.09,1.81-6.17,2.69-9.27c0.14-0.5,0.4-0.99,0.29-1.58c0.42-1.33,0.85-2.65,1.26-3.98
		c0.11-0.37,0.21-0.6,0.47-0.18c1.47,5.09,2.93,10.19,4.4,15.28c0.6,2.14,1.07,4.35,1.88,6.39c0.05,0.89-0.42,0.59-0.77,0.6
		c-2.32,0.03-4.64,0.06-6.97,0.03c-0.18,0-0.34,0.05-0.5,0.16c-0.27,0.72-0.65,1.38-0.64,2.24c-1.14,3.31-1.98,6.78-2.99,10.17
		c-0.55,1.85-1.05,3.72-1.59,5.56c-0.4,1.37-0.36,1.5,0.76,1.5c5.72,0.01,11.44,0.03,17.16-0.03c0.96-0.01,1.41,0.34,1.73,1.58
		C68.94,82.08,69.77,84.68,70.54,87.3z"/>
	<path class="st2" d="M53.83,58.4c0.19-0.61,0.61-0.37,0.92-0.37c2.18-0.03,4.36-0.02,6.54-0.01c0.31,0,0.65,0.14,0.78-0.41
		c0.01,0.78,0.01,0.81-0.71,0.81C58.85,58.43,56.34,58.41,53.83,58.4z"/>
	<path class="st15" d="M55.98,88.43c2.39,0,4.77,0,7.16,0.01c-0.12,0.76-0.63,0.6-1,0.69c-1.45,0.35-1.61,0.58-1.62,2.54
		c-0.01,4.85,0.03,9.69-0.03,14.54c-0.01,1.13,0.33,2.05,0.56,3.06c-1.59,3.78-3.28,7.48-5.1,11.07c-0.67-0.47-0.33-1.33-0.44-2.01
		c-0.36-2.29-0.25-4.61-0.2-6.92c0.03-1.81,0.01-3.63,0.01-5.44c0-1.89,0-3.79,0-5.68c0-1.82,0.05-3.63-0.02-5.44
		c-0.07-1.68-0.03-3.34,0.04-5.01C55.37,89.19,55.81,88.93,55.98,88.43z"/>
	<path class="st16" d="M61.05,109.27c-1.04-0.74-0.86-2.04-0.86-3.26c0-4.93,0-9.87,0-14.8c0-1.82,0.35-2.31,1.74-2.51
		c0.4-0.06,0.85,0.2,1.2-0.26c2.16-0.01,4.32-0.02,6.48-0.01c0.33,0,0.82-0.27,0.89,0.54c-2.31,5.03-4.61,10.07-6.93,15.08
		C62.77,105.82,62.04,107.65,61.05,109.27z"/>
	<path class="st17" d="M46.7,88.42c1.55,0,3.1,0,4.64,0c-0.79,0.71-0.87,1.75-0.86,2.91c0.03,4.8,0.02,9.6,0.01,14.4
		c0,1.38-0.05,2.77,0.33,4.09c0.1,0.34,0.1,0.63-0.16,0.84c-1.76-3.8-3.51-7.61-5.27-11.41c0.47-0.34,0.36-0.94,0.36-1.48
		c0-2.31-0.01-4.62,0.01-6.93C45.77,89.84,45.9,88.9,46.7,88.42z"/>
	<path class="st18" d="M46.7,88.42c-0.5,0.77-0.67,1.65-0.65,2.67c0.04,2.57-0.01,5.15,0.03,7.72c0.02,1-0.28,0.78-0.69,0.46
		c-1.61-3.43-3.21-6.85-4.82-10.28c0.06-0.8,0.53-0.59,0.88-0.59C43.2,88.39,44.95,88.41,46.7,88.42z"/>
	<path class="st19" d="M51.67,139.11c0.04,1.22-0.6,2.42-1.55,2.58c-1.04,0.17-2.1,0.09-3.15,0.12c-0.43,0.01-0.51-0.35-0.5-0.82
		c0.01-0.6,0-1.2,0-1.8c0-2.63,0-2.64,1.98-2.63"/>
	<path class="st19" d="M48.45,136.56c0.52,0,1.06-0.01,1.57,0.1c1.03,0.21,1.61,1.12,1.65,2.46"/>
	<path class="st19" d="M87.78,138.74c0.53,2.17,1.07,4.35,1.6,6.52c0.13,0.53-0.08,0.65-0.42,0.65c-0.84,0-1.68-0.02-2.53,0
		c-0.48,0.01-0.63-0.21-0.48-0.83c0.52-2.1,1.03-4.2,1.54-6.3C87.59,138.77,87.69,138.75,87.78,138.74z"/>
</g>
</svg>
