<svg id="Capa_1" data-name="Capa 1" xmlns="http://www.w3.org/2000/svg" viewBox="0 0 396.27 667.15"><defs><style>.cls-1{fill:#34183e;}.cls-2{fill:#34173d;}.cls-3{fill:#34173c;}.cls-4{fill:#34173b;}.cls-5{fill:#331639;}.cls-6{fill:#34163a;}.cls-7{fill:#35173c;}.cls-8{fill:#35163a;}.cls-9{fill:#33183b;}.cls-10{fill:#35173b;}.cls-11{fill:#34173a;}.cls-12{fill:#68c6df;}.cls-13{fill:#68c5de;}.cls-14{fill:#69c6dd;}.cls-15{fill:#68c5dd;}.cls-16{fill:#65c1d7;}.cls-17{fill:#65c2d7;}.cls-18{fill:#66c4da;}.cls-19{fill:#64c3d8;}</style></defs><path class="cls-1" d="M72.38,167.4c-6-.9-11.1-1.67-16.19-2.39-1.75-.25-2.77-.35-1.57-2.69a181,181,0,0,1,53-62.57c-5.33,19-3.86,35.52,14.38,48.06-1.84-5.27-4-9.28-5-13.73-1.77-7.78-2-15.28.41-23.05,3.11-9.91,14.8-15.26,22.84-13.22,5.13,1.31,10.1,2.89,14.66,5.8-3.73-10.26-10.82-16.54-22.15-19a112.43,112.43,0,0,1,20.92-9.25c19-6.57,38.56-9.29,58.66-10.35,15.05-.8,25.77,5.31,35.31,15.55,2.13,2.27,4.3,4.5,7,7.34.6-6.66-1.61-12.08-3.68-18.1,18.75,4.42,35.4,11.58,49.65,23.8,1.24,1.06,2.68,2.11,2.85,3.92,1,11,5.26,21,9.42,31.26A253.05,253.05,0,0,0,290.73,111a182.24,182.24,0,0,0-21.06-13c-2.75-1.42-3.68-1-4,2.16-.45,4.29-.76,9.79-4.07,11.94-4.23,2.76-7-3.15-10.39-5-6.93-3.85-13.42-8.45-20.47-12.14A16.76,16.76,0,0,0,219.3,93c-16.2,3-31.13,8.75-44.56,18.46-3.32,2.4-3,3.84,0,5.84,1.35.91,2.51,2.1,4.3,3.61-6.17,3.17-12.2,5.57-16.94,10-2.3,2.15-4.59,4.32-6.95,6.4s-1.4,3,1,3.53a10.22,10.22,0,0,0,2,.25c5.33.17,8.88.72,10.3,7.92,2.51,12.78,17.87,23.71,31.1,24,10.32.22,20.66.11,31,0a66.23,66.23,0,0,1,23.09,3.32c-5.9-7.75-13-14.19-19.55-21.06-5.66-5.89-12.4-6.7-19.66-6.07a48,48,0,0,1-29.94-7.2c-3-1.85-4-3-.5-5.56a79.45,79.45,0,0,1,15.53-8.75c5-2.14,10-3,15.24-.2,5.69,3,12,4.85,17.13,8.91,2.06,1.63,3.65,1.3,5.68-.3,3.36-2.65,7-4.91,12.17-5-1.74,3.82-4.24,6.73-4.82,10.51-.48,3.14-.11,5.59,2.45,8a256.4,256.4,0,0,1,19.91,20.73c1.19,1.42,2.12,2.65,4.53,1.74,13.89-5.25,27.89-4.71,43.5.18-12.48-13.33-28.11-22-34.31-38.48a34.25,34.25,0,0,1,11,6.12c2,1.65,3.5,2.37,5.18-.11a1.37,1.37,0,0,1,.36-.36c3-1.95,6.05-5.49,9.65-3.91,3.9,1.71,5,6.39,6.22,10.35.53,1.64-.2,2.81-1.69,3.72-3.38,2-2.77,3.92-.07,6.38,3.38,3.07,6.28,6.68,9.56,10.24,2.11-2.6,1.11-5.87,2.58-9C358.83,207,370,260.18,350,319.27l-14.25-15.44c-5.09,45-26.24,79.44-63.51,104.35-2.58-6.24-3.87-12.4-5.17-18.49-.79-3.66-2.11-4.1-4.81-2.1a113.45,113.45,0,0,1-32.73,16.34c-33,10.75-65.53,11.24-97.29-4.75-3-1.5-3.62-2.85-3-6.08,3.17-18,6.38-36,5.84-54.46-.37-12.7-2.8-25.07-5.66-37.38a12.55,12.55,0,0,0-1.28-2.48c-5,6.91-9.54,13.7-14.56,20.15-9.79,12.58-20.33,24.48-32.79,34.57-2.53,2.05-3.45,2.09-5-1C68.24,337.22,65.06,320.82,63.91,304c-1.22-17.94-1.74-35.93,1.77-53.75.51-2.62,0-3.72-3-2.73-6.92,2.31-13.93,4.32-20.83,6.65-5.27,1.78-6,1.41-5.2-4,3-20.92,10.06-40.46,19.9-59.08A150,150,0,0,1,72.38,167.4Z"/><path class="cls-2" d="M184.36.33c7.29,11.58,14.58,22.45,21.06,33.79,2.71,4.75,4.09,2.93,6.45.31,9.65-10.7,19.36-21.34,29-32A16.23,16.23,0,0,0,242.4,0l1.11.71c.94,13,1.89,26,2.91,40,8.07-9.5,15.7-18.18,25.05-25.33.8,2.36-.87,3.7-1.48,5.34-4.45,12.06-6.78,24.59-8.18,37.31-.26,2.36-.54,3.17-3.19,2.46a181.72,181.72,0,0,0-79.11-3.07A170.1,170.1,0,0,0,126.77,76c-2.91,1.6-4,1.95-5.48-2-4.91-13.51-10.38-26.83-19.12-38.69,10.79,3.95,19.92,10.66,30,18.5-2.19-14.11-4.21-27.17-6.34-41,13.66,9.43,26.8,18.31,39.7,27.53,3.06,2.18,4,1.7,5-1.53,3.67-11.15,7.52-22.23,11.24-33.35A16.29,16.29,0,0,1,184.36.33Z"/><path class="cls-3" d="M245.27,632.88c-16.81,13.9-40.87,2.15-46-16.63-4.1-15.19,4.3-33.46,20.29-38.16,8.2-2.42,16.47-2.58,23.39,3.82,1.94,1.8,3.56,3.12,3.95-.87.33-3.27,2.23-3.79,5.08-3.85,10-.2,10-.29,10,9.79,0,16.66-.21,33.33,0,50,.2,18-12.46,27.77-28,29.82a40,40,0,0,1-30-8c-2.61-2-3.42-3.59-.78-6.35,2.37-2.49,3.56-6.61,6.3-8.11,3-1.62,4.92,2.95,7.76,4.23a27.41,27.41,0,0,0,17.52,2C242.74,648.78,247.44,642.23,245.27,632.88Z"/><path class="cls-4" d="M188.8,485.18c2.43-.68,2.92-2.71,4.3-3.84a18.33,18.33,0,0,1,26.19,3c2,2.57,2.73,1.74,4.23,0,6-6.84,13.52-8.87,22-6.16,9.16,2.92,14.42,9.64,14.8,19.15.51,13,.14,26,.2,39,0,1.83-.5,2.89-2.51,2.7a2.78,2.78,0,0,0-.5,0c-13.66.93-13.66.93-13.66-12.63,0-7.66.05-15.33,0-23-.05-6.85-2.92-10.2-8.68-10.33-6.39-.15-9.94,3.2-10.07,10.15q-.31,15.74,0,31.49c.07,3.55-1,4.41-4.51,4.37-12.12-.15-12.11,0-12.12-12.22,0-7.83.13-15.67-.15-23.49-.27-7.53-3.27-10.43-9.84-10.28-5.74.13-8.86,3.88-8.88,10.76,0,10.33-.11,20.66.05,31,0,3.15-.71,4.69-4.14,4.2a36.08,36.08,0,0,0-5,0c-7.77,0-7.72,0-7.7-7.53,0-15.82.21-31.65-.08-47.47-.08-4.36,1.31-5.65,5.3-5.05a8.31,8.31,0,0,0,2.49,0C185.32,478.27,189,479.14,188.8,485.18Z"/><path class="cls-5" d="M.1,493.23c0-13.66.1-27.32-.06-41,0-3.44,1-4.78,4.5-4.61,11.61.54,23.31-1.1,34.84,1.38,13.09,2.82,21.63,13.2,22.55,26.24,1.22,17.39-8.08,27.77-19.77,31.86-6.68,2.33-13.44,2-20.22,1.88-3.25-.06-4.31.83-4.21,4.16.24,7.49,0,15,.12,22.49,0,2.5-.54,3.36-3.27,3.44C.09,539.51.1,539.6.1,525.21Z"/><path class="cls-3" d="M175.42,584.16c2.62-6.79,6.48-8.59,14.35-6.95,1.78.37,2,1.24,2,2.74q0,27.43,0,54.89c0,.94.23,2.26-1.17,2.32-3.16.13-6.35-.23-9.47.14-4.94.59-4.2-3.57-5.75-6.69-6.68,7.11-14.73,10-24.13,7.84a29.13,29.13,0,0,1-17.43-11.58c-10-13.8-8.37-30.85,3.63-42.38C146.05,576.23,163.67,572.15,175.42,584.16Z"/><path class="cls-6" d="M331,514.75c-5.83,0-11.66,0-17.49,0-1.25,0-2.93-.69-3.65.71-.81,1.58.67,2.73,1.54,3.91,5.41,7.38,18,8.63,25.84,2,2.86-2.39,4.27-1.83,6.12.53.11.13.17.3.28.42,7.74,7.84,7.74,7.84-1.91,13.61-16.79,10-39.38,3.46-47.12-13.73-5.82-13-2.33-29.38,9.34-38.27,10.85-8.27,23.82-9.89,37.16-1.17,8.12,5.3,14.24,20.26,12.46,29.44-.53,2.7-2.28,2.44-4.07,2.45-6.17,0-12.33,0-18.5,0Z"/><path class="cls-3" d="M122.62,515.26c1.78,11.33,18.39,13.25,27,6.51,3.2-2.51,4.45-1.95,6.94.55,7.63,7.65,7.66,8.11-2.11,13.59-18.24,10.23-40.92,3.32-47.32-15.27-5.45-15.83-.38-32.09,14.22-39.4,16.61-8.31,32.5-3.47,41.21,11.45,3.64,6.25,3.59,12.95,3.36,19.76-.1,3-2.33,2.22-4,2.22-11.49.05-23,0-34.47.09C125.82,514.77,124.12,514.24,122.62,515.26Z"/><path class="cls-2" d="M99.44,613c-6.16,0-12.32,0-18.48,0-1.07,0-2.51-.56-3.1.74s.31,2.43,1,3.6c5.83,9.37,19.4,8.52,26.06,2.91,3.31-2.78,5-2.19,7,.81a6.65,6.65,0,0,0,.69.72c6.35,6.77,6.48,7-1.28,11.86C93,645.28,65.29,638.24,60.64,614c-3.61-18.86,10.11-40.13,34.53-37.7,17.55,1.75,27.29,17.28,26.58,33.18-.13,2.8-1,3.74-3.83,3.66-6.15-.18-12.32-.06-18.48-.06Z"/><path class="cls-7" d="M373.83,613c-6.33,0-12.65.06-19,0-2.8,0-3.08.81-1.87,3.18,4.42,8.66,18,11.21,26.38,4.28,3.44-2.86,5-2.06,7.51.71,6.95,7.55,7.2,7.82-1.38,12.9C369,643.85,347.73,639,339.05,624c-9.78-16.9-1.56-41.06,16.92-46.38,23.82-6.86,41.68,9.29,40.22,32.45-.15,2.4-1.12,3.09-3.38,3.05C386.48,613,380.16,613,373.83,613Z"/><path class="cls-8" d="M.34,593c0-13.32.09-26.64-.07-40,0-3.1.5-4.65,4-4.25,4.4.49,10.31-1.83,12.84,1,2.18,2.41.67,8.2.67,12.5,0,18,.11,36-.09,54,0,3.72,1,4.89,4.73,4.8,10.15-.25,20.32,0,30.47-.15,2.81,0,3.71.69,3.75,3.61.15,12.76.24,12.76-12.52,12.76s-25.65-.23-38.46.14c-4.79.13-5.78-1.48-5.68-5.9C.28,618.68.1,605.85.1,593Z"/><path class="cls-9" d="M270.39,598c0-6.82-.64-12.24.15-17.44,1.06-7,6.91-2.33,10.46-3.21,2.14-.53,6-1.69,6,3.3-.11,8.82-.05,17.64,0,26.45,0,3.33.08,6.72,1.56,9.74,2.64,5.38,7.36,6.71,13,6.22,5.34-.47,8.33-3.74,10.09-8.34a21.14,21.14,0,0,0,1.05-7.86c-.06-8.65,0-17.31-.05-26,0-2.35.47-3.58,3.23-3.8,13.36-1.1,13.39-1.18,13.44,12.05,0,7.49.23,15-.21,22.46-.85,14.53-7.77,23.09-21.7,26.56-14.82,3.68-33.47-3.44-36.16-21.26C270.12,610.11,270.85,603.33,270.39,598Z"/><path class="cls-10" d="M376.45,486.89c3.57-6.24,9.09-8.58,15.8-8.58,2.49,0,4.24.79,3.73,3.83a18.74,18.74,0,0,0-.06,3c0,2.82.86,6.17-.35,8.34-1.3,2.33-4.79.21-7.34.61-7.36,1.14-11.52,5.94-11.66,14.32-.15,8.83-.17,17.66,0,26.49.06,3.21-.83,4.21-4.19,4.2-12.5,0-12.5.12-12.5-12.26,0-14.49.11-29-.09-43.48-.05-3.49.88-5,4.41-4.38a9.25,9.25,0,0,0,1.49,0C373.9,479,373.9,479,376.45,486.89Z"/><path class="cls-3" d="M84.17,487.14c3.7-6.52,9.1-8.76,15.63-8.83,2.66,0,4.58.71,4,4a14.77,14.77,0,0,0,0,2.49c0,2.83.78,6-.29,8.39-1.43,3.13-4.89.4-7.46.86-7.36,1.32-11.66,6.15-11.86,14.77-.2,8.81-.23,17.64,0,26.44.09,3.18-.92,3.82-3.9,3.84-12.55.09-12.55.19-12.55-12.11,0-14.64.11-29.28-.08-43.91,0-3.32,1-4.58,4.19-4.09a9.24,9.24,0,0,0,1.49,0C81.48,479,81.48,479,84.17,487.14Z"/><path class="cls-11" d="M285.64,509c0,8.66-.15,17.32.07,26,.08,3.35-1,4.13-4.27,4.12-12.39,0-12.39.1-12.39-12.37,0-14.49.07-29-.09-43.47,0-3.13.56-4.33,4.05-4.35,12.63,0,12.63-.2,12.63,12.6Z"/><path class="cls-10" d="M277.79,450.76c6,.14,10.1,4.21,10,10A10.45,10.45,0,0,1,277,470.82a10.09,10.09,0,0,1-9.7-10.59C267.56,454.32,271.65,450.61,277.79,450.76Z"/><path class="cls-12" d="M290.18,211.17c3.07,9.45-2.86,14.32-9.47,19.08-9.95,7.17-19.9,14.29-31.87,17.83a28.54,28.54,0,0,1-3.35.89c-4.35.68-7.43.09-9.66-4.85-4.41-9.77-9.78-19.13-15-28.54-1.09-2-1.36-2.93.66-4.41,13.11-9.65,26.56-18.6,42.45-23.2,2.95-.85,5.19-.79,7.8,1.1,4.67,3.39,9.5,6.63,15.13,8.38,2.25.71,3.56,2,3.34,4.74C290,205.16,290.18,208.17,290.18,211.17Z"/><path class="cls-13" d="M290.58,300.83c-1-8.9.2-17.35-3.38-25.43-6.37,6-14.2,9.51-22.24,12.82-3.58,1.47-5.41.67-7-2.62-3-6.05-6.2-12-9.36-18a74.14,74.14,0,0,0,29.21-15,28.45,28.45,0,0,1,18.89-6.85c5.91-.05,8.68,2.25,11.65,6.9,5.6,8.78,4.46,17,.36,25.75S299.4,295,290.58,300.83Z"/><path class="cls-14" d="M320.89,246c-3.5-8.17-8.54-14.1-13.94-19.67-2.42-2.5-3.66-5-3.18-8.36a17.38,17.38,0,0,0,0-2.5c-.08-16.32-.06-16.28,13.74-25.4,1.74-1.15,2.82-1.77,3.7.63,6.08,16.65,7.95,33.5,2.27,50.67C323,242.71,322.07,243.91,320.89,246Z"/><path class="cls-15" d="M230.88,623.15c-8.81-.06-15.32-6.9-15.24-16a15.56,15.56,0,0,1,15.8-15.64,15.84,15.84,0,0,1,15.43,16.18A15.49,15.49,0,0,1,230.88,623.15Z"/><path class="cls-15" d="M17.81,478.52a7.34,7.34,0,0,1,0-2.48c1.4-3.74-3.32-10.32,2.72-11.24,13.75-2.09,21.7,2.22,23.12,10.52,1.38,8.13-2.79,14.4-10.86,16.34-4.11,1-8.28.5-12.43.64-2.4.08-2.6-1.48-2.59-3.3C17.83,485.51,17.81,482,17.81,478.52Z"/><path class="cls-13" d="M160.18,623.06a15.2,15.2,0,0,1-15.54-15.23c0-9.1,6.89-16.36,15.69-16.43,8.44-.07,15.45,7.23,15.43,16.07C175.74,616.49,169.13,623.11,160.18,623.06Z"/><path class="cls-16" d="M322.8,502.63c-3.49,0-7-.09-10.47,0-2.85.1-3.32-1.37-2.09-3.35a14.5,14.5,0,0,1,13.22-7.38c5.47.11,9.92,2.26,12.68,7.3,1.24,2.27.91,3.4-1.86,3.37-3.83,0-7.65,0-11.48,0Z"/><path class="cls-17" d="M135.76,491.87c5.63.3,10.2,2,13,7.11,1.31,2.34,1.57,3.67-1.77,3.64q-10.72-.09-21.46,0c-3.13,0-3.23-1.25-2-3.67C126.23,493.85,130.85,492.49,135.76,491.87Z"/><path class="cls-18" d="M91.41,601c-3.64,0-7.28-.08-10.92,0-2.54.07-3.46-.72-2.06-3.13A13.77,13.77,0,0,1,91,590.62c5.56-.07,9.94,1.82,12.83,6.77,1.45,2.48,1.59,3.86-2,3.67S94.88,601,91.41,601Z"/><path class="cls-19" d="M366.57,601c-3.81,0-7.63,0-11.45,0-2.3,0-2.95-.58-1.89-2.92,2.06-4.6,6.89-7.54,12.94-7.49,5.74.06,11.17,3.3,13,7.57,1,2.38.08,2.89-2.12,2.84C373.55,600.92,370.06,601,366.57,601Z"/></svg>